<svg width="36" height="30" viewBox="0 0 36 30" fill="none" xmlns="http://www.w3.org/2000/svg">
<path d="M13.4394 3.44075L7.87875 8.99987H1.5C0.67125 8.99987 0 9.67109 0 10.4998V19.4994C0 20.3275 0.67125 20.9993 1.5 20.9993H7.87875L13.4394 26.5584C14.3787 27.4977 16 26.8378 16 25.4978V4.50133C16 3.16014 14.3775 2.50267 13.4394 3.44075ZM28.0219 0.248403C27.3237 -0.209701 26.3856 -0.0165845 25.9275 0.682758C25.4688 1.38085 25.6637 2.31893 26.3619 2.77703C30.5037 5.49503 32.9756 10.0642 32.9756 15.0002C32.9756 19.9362 30.5037 24.5054 26.3619 27.2234C25.6637 27.6809 25.4688 28.6196 25.9275 29.317C26.3675 29.9864 27.2981 30.227 28.0219 29.7514C33.0169 26.4728 36 20.9574 36 14.9996C36 9.04174 33.0169 3.527 28.0219 0.248403ZM30 14.9996C30 11.0291 27.9963 7.37869 24.6394 5.23504C23.94 4.78881 23.0125 4.9963 22.5694 5.70127C22.1262 6.40624 22.3331 7.33932 23.0325 7.78617C25.5169 9.37297 27 12.0691 27 14.9996C27 17.9301 25.5169 20.6262 23.0325 22.213C22.3331 22.6592 22.1262 23.5923 22.5694 24.2979C22.9762 24.9454 23.8894 25.2441 24.6394 24.7641C27.9963 22.6205 30 18.9706 30 14.9996ZM21.1394 10.1954C20.4156 9.79983 19.5025 10.0604 19.1012 10.786C18.7019 11.5116 18.9663 12.4235 19.6919 12.8241C20.4988 13.2672 21 14.1015 21 14.9996C21 15.8983 20.4987 16.732 19.6925 17.1751C18.9669 17.5757 18.7025 18.4875 19.1019 19.2131C19.5037 19.9419 20.4175 20.2006 21.14 19.8037C22.9044 18.8319 24.0006 16.9914 24.0006 14.999C24.0006 13.0066 22.9044 11.1666 21.1394 10.1954Z" fill="white"/>
</svg>
