<svg width="609" height="114" viewBox="0 0 609 114" fill="none" xmlns="http://www.w3.org/2000/svg">
<g clip-path="url(#clip0_104_1971)">
<path d="M608.116 24.2706C608.444 23.6397 608.732 22.9938 609.005 22.3379V5.07274C607.018 5.18204 601.894 2.82205 599.908 2.90155C579.345 3.74121 561.881 5.59939 541.313 5.27644C528.497 5.07274 515.69 5.02306 502.869 5.38078C490.137 5.73354 477.405 6.28006 464.664 6.37446C433.077 6.5732 401.511 2.4842 369.929 4.3871C362.064 4.88394 354.183 5.06777 346.288 5.08268C320.129 7.13959 293.96 7.2489 267.687 6.36452C235.703 5.29135 203.799 3.29405 171.786 3.88032C155.796 4.17843 139.802 4.6852 123.803 4.47653C107.883 4.26786 92.0228 3.2543 76.0682 3.30896C61.3898 3.37851 46.8455 4.12377 32.172 3.13009C25.4486 2.6581 18.6208 2.08176 11.8129 1.94761C11.3909 11.8844 11.51 21.702 13.6502 31.5692C14.5142 35.544 15.7258 39.6528 15.5769 43.7418C15.4279 47.7165 14.0177 51.1944 11.8129 54.4587C16.1976 55.4523 20.7114 55.0251 25.1556 55.5865C25.5131 55.6312 25.8707 56.1131 25.4933 56.4063C23.3613 58.0538 21.0075 59.3919 18.5016 60.381C16.9375 61.0368 15.3435 61.6281 13.8042 62.3286C12.3443 62.9944 13.0345 64.316 13.1785 65.6574C13.8489 72.1164 14.0425 78.5753 14.3504 85.0342C14.4944 88.1494 14.847 91.2646 14.9214 94.3798C15.0323 95.9954 14.7987 97.6161 14.2362 99.1345C13.0395 102.17 11.2568 105.444 10.2637 108.778C29.8233 113.975 50.8726 111.203 70.8444 111.397C82.9357 111.516 95.0369 111.893 107.133 111.69C119.378 111.491 131.614 111.009 143.849 110.537C164.278 109.747 184.761 108.987 205.19 110.125C224.511 111.203 243.758 113.19 263.104 113.836C282.842 114.497 302.332 113.528 322.041 112.39C341.963 111.238 361.91 110.552 381.857 110.07C457.667 108.237 534.068 108.972 608.98 95.8554V81.2036C606.244 79.559 603.463 77.9791 600.692 76.3942C600.586 76.3273 600.508 76.2223 600.476 76.1006C600.444 75.9788 600.459 75.8493 600.518 75.7383C601.708 73.7942 603.133 72.0037 604.759 70.4072C605.698 69.498 606.661 68.6186 607.669 67.7939C608.309 67.297 607.719 66.5219 607.495 65.8413C606.413 62.4949 605.583 59.072 605.012 55.6014C604.228 50.8417 602.688 43.1108 606.005 38.833C603.657 37.5263 601.566 35.9315 598.89 35.2955C598.81 35.2701 598.739 35.225 598.681 35.1644C598.624 35.1039 598.582 35.0298 598.561 34.9491C598.54 34.8684 598.539 34.7837 598.559 34.7027C598.579 34.6217 598.62 34.5471 598.676 34.4857C602.142 31.4897 605.971 28.4044 608.116 24.2706Z" fill="#7E3D26"/>
<path d="M608.116 24.2706C608.444 23.6397 608.732 22.9938 609.005 22.3379V5.07274C607.018 5.18204 601.894 2.82205 599.908 2.90155C579.345 3.74121 561.881 5.59939 541.313 5.27644C528.497 5.07274 515.69 5.02306 502.869 5.38078C490.137 5.73354 477.405 6.28006 464.664 6.37446C433.077 6.5732 401.511 2.4842 369.929 4.3871C362.064 4.88394 354.183 5.06777 346.288 5.08268C320.129 7.13959 293.96 7.2489 267.687 6.36452C235.703 5.29135 203.799 3.29405 171.786 3.88032C155.796 4.17843 139.802 4.6852 123.803 4.47653C107.883 4.26786 92.0228 3.2543 76.0682 3.30896C61.3898 3.37851 46.8455 4.12377 32.172 3.13009C25.4486 2.6581 18.6208 2.08176 11.8129 1.94761C11.3909 11.8844 11.51 21.702 13.6502 31.5692C14.5142 35.544 15.7258 39.6528 15.5769 43.7418C15.4279 47.7165 14.0177 51.1944 11.8129 54.4587C16.1976 55.4523 20.7114 55.0251 25.1556 55.5865C25.5131 55.6312 25.8707 56.1131 25.4933 56.4063C23.3613 58.0538 21.0075 59.3919 18.5016 60.381C16.9375 61.0368 15.3435 61.6281 13.8042 62.3286C12.3443 62.9944 13.0345 64.316 13.1785 65.6574C13.8489 72.1164 14.0425 78.5753 14.3504 85.0342C14.4944 88.1494 14.847 91.2646 14.9214 94.3798C15.0323 95.9954 14.7987 97.6161 14.2362 99.1345C13.0395 102.17 11.2568 105.444 10.2637 108.778C29.8233 113.975 50.8726 111.203 70.8444 111.397C82.9357 111.516 95.0369 111.893 107.133 111.69C119.378 111.491 131.614 111.009 143.849 110.537C164.278 109.747 184.761 108.987 205.19 110.125C224.511 111.203 243.758 113.19 263.104 113.836C282.842 114.497 302.332 113.528 322.041 112.39C341.963 111.238 361.91 110.552 381.857 110.07C457.667 108.237 534.068 108.972 608.98 95.8554V81.2036C606.244 79.559 600.379 75.9569 600.538 75.7383C601.728 73.7942 603.152 72.0037 604.779 70.4072C605.717 69.498 606.681 68.6186 607.689 67.7939C608.329 67.297 607.738 66.5219 607.515 65.8413C606.433 62.4949 605.603 59.072 605.032 55.6014C604.248 50.8417 602.708 43.1108 606.025 38.833C603.677 37.5263 598.423 34.7242 598.696 34.4857C602.142 31.4897 605.971 28.4044 608.116 24.2706Z" fill="#7E3D26"/>
<g style="mix-blend-mode:multiply">
<path d="M604.574 22.5367C602.846 22.6162 601.098 22.7404 599.37 22.6708C598.034 22.6162 596.589 22.2386 595.259 22.4075C592.041 22.8099 590.487 26.3276 588.679 28.6031C587.139 30.5643 585.447 32.4017 583.619 34.0981C585.003 34.2977 586.345 34.7223 587.592 35.3552C589.891 36.5334 592.4 37.2459 594.976 37.4518C598.248 37.6804 601.456 38.0878 604.688 38.0977C602.121 36.6867 598.466 34.6844 598.695 34.4857C602.146 31.5046 605.974 28.4044 608.129 24.2706C608.457 23.6397 608.745 22.9938 609.018 22.3379V22.1939C607.444 22.2535 605.83 22.5069 604.574 22.5367Z" fill="#7E3D26"/>
</g>
<g style="mix-blend-mode:multiply">
<path d="M607.687 67.7939C607.787 67.7179 607.864 67.6166 607.911 67.5007L607.558 67.4361C605.075 67.0039 602.593 66.3232 600.11 65.8413C596.962 65.2302 593.128 65.0563 591.211 68.1069C589.369 71.0432 587.969 74.2329 586.092 77.1494C587.83 77.6065 589.523 78.143 590.889 79.3851C592.12 80.503 592.939 81.2831 594.727 80.9055C595.72 80.6918 596.669 80.4534 597.647 80.2745C599.807 79.872 602.255 80.4434 604.425 80.5825C605.696 80.6686 606.966 80.7233 608.234 80.7465C605.304 78.9678 600.413 75.9371 600.537 75.7383C601.727 73.7942 603.151 72.0037 604.777 70.4072C605.701 69.498 606.694 68.6186 607.687 67.7939Z" fill="#7E3D26"/>
</g>
<g style="mix-blend-mode:multiply">
<path d="M603.159 90.1417C601.287 90.1864 599.41 90.1864 597.533 90.1815C601.339 90.6569 605.169 90.914 609.004 90.9516V89.5356C608.373 89.6946 607.832 89.8387 607.514 89.8933C606.07 90.0792 604.615 90.1623 603.159 90.1417Z" fill="#7E3D26"/>
</g>
<g style="mix-blend-mode:multiply">
<path d="M597.758 46.072C599.817 46.4842 601.903 46.7449 604 46.852C604 46.2211 604 45.5851 604.044 44.969C601.912 45.0804 599.801 45.4508 597.758 46.072Z" fill="#7E3D26"/>
</g>
<g style="mix-blend-mode:multiply">
<path d="M609.005 12.3167V7.60166C602.634 8.99281 596.173 9.98152 589.812 11.4621C596.203 11.9291 602.604 12.1179 609.005 12.3167Z" fill="#7E3D26"/>
</g>
<g style="mix-blend-mode:multiply">
<path d="M609.005 18.6812V17.1311C604.838 17.3894 600.657 17.4441 596.496 17.8465C600.037 20.0773 604.66 18.8849 609.005 18.6812Z" fill="#7E3D26"/>
</g>
<g style="mix-blend-mode:multiply">
<path d="M598.616 93.7438C593.511 93.4209 588.322 93.4855 583.222 93.4258C574.364 93.3265 565.475 93.9227 556.641 93.1576C556.641 93.5153 556.314 93.878 555.946 93.6196L555.062 92.9986C554.193 92.9091 553.319 92.8247 552.445 92.7054C551.835 92.616 552.098 91.7117 552.703 91.7714C552.977 91.8111 553.25 91.831 553.528 91.8658C553.369 91.7416 553.215 91.6223 553.061 91.4931C548.463 91.5677 543.87 91.7664 539.286 92.0645C524.096 93.0582 508.996 94.9412 493.836 96.3423C478.602 97.7537 463.294 98.2001 448.003 97.6788C433.657 97.182 419.247 95.915 404.892 95.9796C398.168 96.0044 388.758 96.8689 382.849 92.6061L379.011 92.8247C315.6 96.1485 251.861 95.3089 188.415 93.1973C130.426 91.2596 72.4971 87.2948 14.4737 86.5744C14.6376 89.158 14.871 91.7465 14.9703 94.3301C15.0811 95.9457 14.8476 97.5664 14.285 99.0849C13.0883 102.121 11.3056 105.395 10.3125 108.729C29.8721 113.925 50.9214 111.153 70.8932 111.347C82.9845 111.466 95.0858 111.844 107.182 111.64C119.427 111.441 131.663 110.959 143.898 110.487C164.327 109.697 184.81 108.937 205.238 110.075C224.56 111.153 243.806 113.14 263.153 113.786C282.891 114.447 302.381 113.478 322.09 112.341C342.012 111.188 361.959 110.502 381.906 110.02C457.716 108.187 534.117 108.922 609.029 95.8057V95.5424C608.492 95.4033 607.951 95.2443 607.385 95.1052C604.507 94.3974 601.573 93.9419 598.616 93.7438Z" fill="#7E3D26"/>
</g>
<g style="mix-blend-mode:multiply">
<path d="M594.703 60.9871C598.613 61.936 602.603 62.5198 606.621 62.7311C606.452 62.1199 606.288 61.5088 606.124 60.8927C602.301 60.6443 598.482 60.4953 594.703 60.9871Z" fill="#7E3D26"/>
</g>
<g style="mix-blend-mode:multiply">
<path d="M591.272 51.7409C591.301 53.005 591.248 54.2697 591.113 55.5269C595.637 54.9803 600.106 53.465 604.605 52.9483C604.57 52.7098 604.53 52.4812 604.491 52.2378C603.81 52.2378 603.125 52.2378 602.44 52.2378C598.716 52.054 594.996 51.8204 591.272 51.7409Z" fill="#7E3D26"/>
</g>
<g style="mix-blend-mode:multiply">
<path d="M600.433 84.6815C597.841 84.8007 594.812 84.3883 592.234 85.1385C597.77 86.1361 603.379 86.6646 609.003 86.7185V84.4082C606.148 84.3535 603.283 84.5523 600.433 84.6815Z" fill="#7E3D26"/>
</g>
<path d="M598.428 22.8298C598.756 22.1988 599.049 21.548 599.317 20.8921V3.62693C576.783 4.86407 554.184 4.18836 531.625 3.83064C518.809 3.6319 505.998 3.58222 493.182 3.93994C480.445 4.2927 467.713 4.83426 454.946 4.93362C423.36 5.13733 391.793 1.04336 360.217 2.94626C352.376 3.42323 344.511 3.62693 336.595 3.62693C310.446 5.69876 284.277 5.80309 258.004 4.91872C226.021 3.84554 194.111 1.84825 162.103 2.43452C146.109 2.73262 130.114 3.24437 114.115 3.03569C98.1954 2.82205 82.3351 1.81347 66.3806 1.86812C51.7021 1.9178 37.1578 2.673 22.4993 1.65448C15.7708 1.15764 8.94806 0.601177 2.14018 0.471998C1.71314 10.4088 1.83229 20.2214 3.97744 30.0936C4.8365 34.0683 6.04811 38.1722 5.89914 42.2662C5.75514 46.2409 4.34492 49.7188 2.13521 52.983C6.51987 53.9767 11.0386 53.5494 15.4779 54.1109C15.8354 54.1506 16.1929 54.6077 15.8205 54.9307C13.6843 56.5746 11.3295 57.9124 8.8239 58.9054C7.2647 59.5562 5.66578 60.1475 4.12644 60.848C2.67151 61.5188 3.36172 62.8354 3.50076 64.1818C4.17609 70.6109 4.36974 77.0748 4.67264 83.5288C4.82161 86.644 5.16922 89.7592 5.24867 92.8744C5.35398 94.4934 5.11884 96.1166 4.55844 97.6391C3.36173 100.665 1.57906 103.944 0.585938 107.278C20.1406 112.47 41.1949 109.702 61.1666 109.896C73.258 110.015 85.3592 110.393 97.4555 110.189C109.701 109.99 121.941 109.509 134.201 109.032C154.63 108.247 175.113 107.486 195.542 108.624C214.863 109.702 234.105 111.685 253.451 112.336C273.189 112.996 292.679 112.023 312.388 110.89C332.31 109.737 352.257 109.051 372.204 108.57C448.019 106.736 524.415 107.467 599.327 94.3549V79.7627C596.591 78.1132 590.731 74.5161 590.885 74.2975C592.072 72.3528 593.497 70.5636 595.126 68.9714C596.06 68.0572 598.105 65.0811 597.862 64.4054C596.778 61.0578 595.948 57.6331 595.379 54.1606C594.595 49.4008 593.055 41.67 596.372 37.3922C594.024 36.0855 588.775 33.2883 589.048 33.0498C592.454 30.0489 596.268 26.9784 598.428 22.8298Z" fill="#A25D3E"/>
<path d="M266.743 113.036C262.17 113.036 257.691 112.962 253.435 112.818C241.895 112.435 230.206 111.561 218.899 110.711C211.237 110.14 203.317 109.543 195.511 109.106C188.529 108.719 181.205 108.53 173.111 108.53C159.813 108.53 146.212 109.056 134.21 109.523L132.85 109.578C121.26 110.025 109.278 110.487 97.4795 110.676C95.0165 110.716 92.5519 110.736 90.0856 110.736C84.1567 110.736 78.1333 110.636 72.3086 110.542C68.5993 110.482 64.89 110.423 61.1807 110.388C55.793 110.338 50.2215 110.502 44.8239 110.661C40.0618 110.805 35.131 110.954 30.2845 110.954C18.0045 110.954 8.8131 109.961 0.490704 107.75L-0.00585938 107.621L0.133193 107.154C0.831108 105.004 1.67051 102.902 2.64583 100.864C3.17715 99.6811 3.67868 98.5731 4.13552 97.4751C4.67309 96.0146 4.89477 94.4567 4.78599 92.9042C4.73137 91.1603 4.60226 89.3816 4.47812 87.6575C4.37881 86.2912 4.27948 84.9299 4.21493 83.5685C4.15534 82.3662 4.10074 81.1638 4.05108 79.9615C3.82266 74.7993 3.58928 69.4632 3.05796 64.2464C3.02816 63.9682 2.97353 63.69 2.92388 63.4217C2.72525 62.3932 2.47701 61.1114 3.95677 60.4406C4.94989 59.9786 6.00752 59.5662 7.01058 59.1637L8.67412 58.488C11.1165 57.5245 13.4128 56.2252 15.4969 54.6276H15.4472C13.6447 54.399 11.7825 54.3345 9.98499 54.2699C7.31836 54.2587 4.65855 53.9992 2.03998 53.4948L1.35472 53.3408L1.74702 52.7644C4.09577 49.2866 5.30244 45.8832 5.43154 42.296C5.55072 39.0467 4.78101 35.7278 4.0312 32.5182C3.8574 31.758 3.67864 30.9979 3.53464 30.2427C1.24052 19.6699 1.31502 9.27104 1.68744 0.501808V0.0347786H2.15424C7.67106 0.139115 13.2574 0.531619 18.665 0.939028L22.5381 1.21726C27.7322 1.57995 33.2788 1.74888 39.9824 1.74888C44.6203 1.74888 49.3426 1.66938 53.8862 1.58989C57.9729 1.52033 62.1937 1.45077 66.3648 1.4309H67.6807C76.3507 1.4309 85.1448 1.73397 93.651 2.03208C100.355 2.26559 107.287 2.52892 114.104 2.59847C116.726 2.6316 119.348 2.64816 121.97 2.64816C131.713 2.64816 141.624 2.43452 151.208 2.22584C154.832 2.14635 158.456 2.07182 162.077 2.00227C165.98 1.92774 170.062 1.88799 174.213 1.88799C193.788 1.88799 213.66 2.70778 232.882 3.49776C241.115 3.84058 249.626 4.18836 258.003 4.49144C268.511 4.84419 278.219 5.01809 287.673 5.01809C305.122 5.01809 321.107 4.42685 336.545 3.21456C345.031 3.21456 352.753 2.96614 360.196 2.51898C365.882 2.17119 371.801 2.02214 378.281 2.02214C390.695 2.02214 403.293 2.6581 415.483 3.26921C428.419 3.92007 441.801 4.5908 454.95 4.50634C463.928 4.45169 473.055 4.15855 481.884 3.87535C485.641 3.70974 489.402 3.57228 493.166 3.46298C499.507 3.28908 506.106 3.19965 513.336 3.19965C518.898 3.19965 524.881 3.2543 531.63 3.35864L541.432 3.5226C550.822 3.69152 560.53 3.86542 570.073 3.86542C580.998 3.86542 590.577 3.6319 599.291 3.15494L599.788 3.12513L599.743 21.076C599.42 21.8461 599.132 22.4721 598.834 23.0633C596.848 26.9188 593.467 29.8253 590.209 32.6374L589.713 33.0846C590.671 33.7404 593.462 35.2757 595.065 36.16C595.632 36.4681 596.148 36.7513 596.555 36.9898L597.052 37.2581L596.714 37.6953C593.735 41.5607 594.912 48.5959 595.691 53.2513L595.83 54.096C596.4 57.5456 597.23 60.947 598.313 64.2713C598.661 65.3494 596.158 68.6335 595.453 69.3191C593.94 70.8005 592.607 72.4547 591.48 74.2478C592.473 74.9831 596.193 77.3282 599.584 79.3702L599.813 79.5093V94.7772L599.42 94.8468C536.183 105.897 470.964 107.129 407.886 108.316C396.187 108.54 384.086 108.768 372.203 109.051C349.058 109.613 330.06 110.348 312.407 111.372C297.833 112.211 282.275 113.036 266.743 113.036ZM173.106 107.571C181.22 107.571 188.559 107.76 195.556 108.147C203.372 108.584 211.302 109.181 218.969 109.752C230.26 110.602 241.94 111.471 253.46 111.859C257.705 112.003 262.175 112.072 266.738 112.072C282.246 112.072 297.773 111.252 312.352 110.413C330.01 109.389 349.023 108.654 372.183 108.098C384.066 107.809 396.167 107.601 407.866 107.357C470.781 106.175 535.831 104.943 598.844 93.9426V80.0261C590.542 75.0229 590.447 74.6453 590.403 74.4217L590.353 74.2279L590.462 74.0441C591.672 72.0662 593.121 70.2455 594.778 68.6236C595.771 67.6647 597.419 65.0563 597.384 64.5197C596.303 61.1579 595.473 57.7202 594.902 54.2351L594.763 53.3905C593.963 48.74 592.791 41.7992 595.632 37.5462L594.599 36.9749C588.854 33.8199 588.566 33.5367 588.526 33.1194L588.496 32.8759L588.695 32.6871L589.603 31.9021C592.791 29.1496 596.088 26.3027 598.005 22.6112C598.283 22.0796 598.546 21.5032 598.844 20.7977V4.12377C590.249 4.58584 580.829 4.80941 570.073 4.80941C560.52 4.80941 550.807 4.63552 541.417 4.47156C538.149 4.41194 534.882 4.35563 531.615 4.30264C524.871 4.1983 518.893 4.14365 513.336 4.14365C506.111 4.14365 499.522 4.23308 493.196 4.40697C489.438 4.50965 485.683 4.62393 481.929 4.74979C473.095 5.03796 463.963 5.3311 454.97 5.39072C441.786 5.46524 428.399 4.79948 415.454 4.14862C403.273 3.54247 390.69 2.91148 378.276 2.91148C371.821 2.91148 365.917 3.07544 360.251 3.40832C352.802 3.85548 345.046 4.08403 336.58 4.09893C321.151 5.31619 305.142 5.90743 287.668 5.90743C278.204 5.90743 268.486 5.73354 257.964 5.38078C249.587 5.09758 241.081 4.74979 232.838 4.3871C213.65 3.62693 193.788 2.81212 174.228 2.81212C170.082 2.81212 166.01 2.85186 162.112 2.92142C158.494 2.99098 154.872 3.06054 151.247 3.13009C141.654 3.33877 131.737 3.55241 121.985 3.55241C119.36 3.55241 116.735 3.53585 114.109 3.50272C107.277 3.41329 100.345 3.16984 93.6361 2.93633C85.1349 2.66306 76.3656 2.35502 67.6956 2.35502H66.3847C62.2185 2.35502 57.9977 2.43949 53.916 2.50904C49.3476 2.58854 44.6252 2.66803 39.9774 2.66803C33.249 2.66803 27.6875 2.49911 22.4636 2.13641L18.5905 1.85818C13.3517 1.47562 7.93915 1.08311 2.59613 0.96387C2.2386 9.57908 2.20388 19.7196 4.43842 30.0042C4.60228 30.7494 4.77608 31.4947 4.93498 32.2648C5.68976 35.534 6.47928 38.9125 6.35514 42.296C6.17155 46.008 4.96885 49.5974 2.8792 52.67C5.21722 53.0537 7.58112 53.258 9.95026 53.2812C11.7726 53.3457 13.6497 53.4153 15.4969 53.6488C15.701 53.677 15.8926 53.7631 16.0493 53.8969C16.2059 54.0308 16.321 54.2068 16.3807 54.404C16.427 54.569 16.4224 54.744 16.3675 54.9063C16.3125 55.0686 16.2098 55.2104 16.0729 55.3132C13.9067 56.9872 11.5143 58.3455 8.96707 59.3476C8.41092 59.5811 7.85477 59.8047 7.29366 60.0282C6.30053 60.4257 5.26765 60.8381 4.28445 61.2902C3.54457 61.6231 3.55947 62.0653 3.78789 63.2329C3.84251 63.526 3.90212 63.834 3.93191 64.1371C4.4831 69.3837 4.71648 74.7347 4.92504 79.9068C4.9747 81.1092 5.02764 82.3115 5.08391 83.5139C5.14847 84.8653 5.24779 86.2217 5.34711 87.578C5.47621 89.307 5.61029 91.1006 5.65994 92.8694C5.77663 94.5575 5.53291 96.2512 4.94492 97.8378C4.49801 98.9557 3.99152 100.079 3.45523 101.266C2.57573 103.122 1.8015 105.026 1.13626 106.97C9.26003 109.076 18.2627 110.015 30.2199 110.015C35.0515 110.015 39.9725 109.871 44.7296 109.727C50.1322 109.568 55.7235 109.399 61.1161 109.449C64.8255 109.489 68.5646 109.548 72.2491 109.608C78.0737 109.702 84.0921 109.802 90.0111 109.802C92.4708 109.802 94.9321 109.782 97.395 109.742C109.178 109.553 121.156 109.091 132.74 108.644L134.101 108.589C146.177 108.107 159.788 107.581 173.106 107.581V107.571Z" fill="#7E3D26"/>
<g style="mix-blend-mode:multiply" opacity="0.5">
<path d="M590.86 74.2925C592.047 72.3478 593.472 70.5586 595.101 68.9664C596.035 68.0522 598.081 65.0761 597.837 64.4004C596.855 61.3604 596.083 58.256 595.528 55.1095L595.066 55.2337C588.512 56.9661 581.936 58.6139 575.338 60.1773C562.553 63.1848 549.697 65.8843 536.77 68.2758C511.28 72.9693 485.624 76.5929 459.803 79.1467C419.919 83.1711 379.975 84.4281 339.942 85.854C299.298 87.3048 258.635 88.8102 217.961 88.3382C177.919 87.8712 138.357 83.8915 98.816 77.6512C79.0379 74.526 59.4038 70.6954 39.4867 68.5192C30.7074 67.5554 21.6104 66.6362 13.1688 63.7645C10.5509 62.7827 8.00688 61.6137 5.55654 60.2667C5.05998 60.4605 4.59817 60.6543 4.12644 60.8679C2.67151 61.5386 3.36172 62.8553 3.50076 64.2017C4.17609 70.6308 4.36974 77.0947 4.67264 83.5487C4.82161 86.6639 5.16922 89.779 5.24867 92.8942C5.35398 94.5133 5.11884 96.1364 4.55844 97.6589C3.36173 100.685 1.57906 103.964 0.585938 107.298C20.1406 112.49 41.1949 109.722 61.1666 109.916C73.258 110.035 85.3592 110.413 97.4555 110.209C109.701 110.01 121.941 109.528 134.201 109.051C154.63 108.266 175.113 107.506 195.542 108.644C214.863 109.722 234.105 111.705 253.451 112.355C273.189 113.016 292.679 112.042 312.388 110.91C332.31 109.757 352.257 109.071 372.204 108.589C448.019 106.756 524.415 107.486 599.327 94.3748V79.7627C596.581 78.1132 590.721 74.5161 590.86 74.2925Z" fill="#A25D3E"/>
</g>
<g style="mix-blend-mode:screen" opacity="0.5">
<path d="M483.051 99.3879C475.488 99.3233 467.951 98.8662 460.413 98.3296C452.875 97.7931 445.486 98.0912 437.953 98.2303C430.306 98.3644 422.624 97.4651 414.982 97.2366C407.132 97.0081 399.271 96.9931 391.415 96.8391C375.813 96.5361 360.266 94.3549 344.738 92.7948C328.938 91.2149 313.187 89.6946 297.302 89.3418C266.113 88.6611 234.909 89.6051 203.789 91.6124C187.939 92.6309 172.113 93.714 156.258 94.5487C148.596 94.9561 140.954 95.3685 133.277 95.4082C125.709 95.448 118.142 95.3387 110.574 95.7411C94.4259 96.6056 78.1932 98.9209 62.0052 98.1905C58.0625 98.0166 54.2042 97.7384 50.2466 97.7583C46.289 97.7782 42.3662 97.7583 38.3986 97.4006C34.4311 97.0428 30.3593 96.6354 26.357 96.0889C22.8115 95.5921 18.4119 95.3387 15.2141 93.6047C15.1594 93.5749 15.0552 93.709 15.1048 93.7388C17.4834 95.1996 20.567 95.6566 23.2783 96.1634C27.221 96.9037 31.2233 97.3658 35.1958 97.808C38.8213 98.2542 42.4678 98.5079 46.1202 98.5681C50.0033 98.5681 53.946 98.4042 57.8043 98.8166C72.9048 100.431 88.3628 98.0862 103.443 97.1174C118.941 96.1237 134.464 96.6851 149.971 95.8653C165.29 95.0604 180.594 94.2108 195.894 93.1228C227.545 90.8837 259.227 89.9364 290.941 90.2808C306.831 90.4547 322.582 91.7366 338.407 93.2619C346.263 94.027 354.118 94.7723 361.974 95.4977C369.735 96.2181 377.512 97.2068 385.313 97.3757C393.531 97.5496 401.759 97.4751 409.977 97.5446C418.389 97.6142 426.766 98.3595 435.163 98.4737C442.934 98.5781 450.63 97.8577 458.402 98.4141C466.565 98.9954 474.729 99.5618 482.922 99.532C483.006 99.5519 483.106 99.3879 483.051 99.3879Z" fill="#A25D3E"/>
</g>
<g style="mix-blend-mode:screen" opacity="0.5">
<path d="M352.386 101.008C349.948 99.9792 347.351 99.7307 344.744 99.4475C341.546 99.1047 338.358 98.7172 335.16 98.3793C328.402 97.6639 321.589 96.8888 314.801 96.7795C308.162 96.6553 301.573 95.4132 294.939 95.289C287.892 95.1648 280.861 94.2009 273.805 94.2357C260.174 94.3052 246.578 95.5225 232.958 95.6567C226.959 95.7163 221.09 96.6503 215.136 97.1919C212.251 97.4503 209.545 98.0614 206.62 98.0663C205.294 98.0663 203.824 98.2651 202.94 99.3233C202.856 99.4227 202.642 99.7506 202.806 99.8748C204.102 100.869 205.647 100.839 207.221 100.839C209.321 100.839 211.402 101.246 213.502 101.296C218.498 101.41 223.434 103.03 228.399 103.283C238.971 103.78 249.568 105.121 260.154 105.206C264.817 105.246 269.46 105.703 274.128 105.703C278.795 105.703 283.562 105.405 288.29 105.067C293.171 104.719 298.062 104.61 302.943 104.197C307.983 103.765 312.974 102.901 318.044 102.801C318.312 102.801 318.957 102.071 318.54 101.952C313.297 100.411 307.671 100.411 302.253 100.645C299.652 100.823 297.04 100.755 294.452 100.441C291.724 99.9845 288.969 99.7057 286.204 99.6065C280.811 99.532 275.478 98.752 270.086 99.1793C268.864 99.2786 267.846 99.6413 266.58 99.5718C265.314 99.5022 264.052 99.1544 262.717 99.1793L254.275 99.3432C254.171 99.3432 253.997 99.6214 254.106 99.6264L261.555 99.7655C263.844 99.8102 266.113 100.526 268.377 100.143C274.162 99.1494 279.967 100.257 285.787 100.317C288.261 100.385 290.727 100.615 293.171 101.008C296.046 101.402 298.953 101.517 301.851 101.35C306.32 101.137 310.933 101.107 315.318 102.056C312.224 102.285 309.16 102.761 306.057 103.05C301.126 103.507 296.185 103.601 291.254 103.979C286.323 104.356 281.447 104.684 276.481 104.789C271.516 104.893 266.55 104.51 261.535 104.386C251.251 104.133 240.997 103.169 230.723 102.612C225.961 102.354 221.318 101.514 216.606 100.859C214.366 100.551 212.137 100.486 209.872 100.208C207.886 99.9643 205.498 100.367 203.75 99.2687C205.14 98.5185 208.115 98.9706 209.341 98.9259C211.908 98.8414 214.744 98.27 217.286 97.8477C223.353 96.9109 229.486 96.4722 235.624 96.5361C242.079 96.5361 248.5 95.761 254.945 95.5921C261.679 95.4231 268.427 95.0952 275.17 95.0505C287.992 94.9362 300.763 96.8044 313.56 97.2764C320.045 97.5198 326.47 98.0614 332.926 98.7371C336.243 99.0848 339.59 99.3631 342.887 99.8748C345.797 100.327 348.657 100.436 351.373 101.654C350.122 102.523 348.319 102.116 346.934 102.374C344.273 102.848 341.587 103.172 338.889 103.343C333.095 103.775 327.329 104.436 321.544 104.977C315.586 105.534 309.627 106.016 303.668 106.468C297.501 106.965 291.363 107.049 285.196 107.367C279.575 107.66 274.197 107.367 268.591 107.129C262.717 106.9 256.837 107.342 250.963 107.163C245.089 106.985 239.259 106.528 233.419 106.239C230.579 106.097 227.745 105.863 224.918 105.539C222.748 105.285 220.141 105.579 218.14 104.649C218.066 104.62 217.942 104.799 217.996 104.833C219.615 105.628 221.606 105.519 223.379 105.762C226.294 106.17 229.258 106.433 232.193 106.657C238.291 107.124 244.423 107.546 250.526 107.874C256.629 108.202 262.826 107.73 268.973 108.008C271.888 108.142 274.778 108.505 277.703 108.54C280.965 108.594 284.158 108.242 287.441 108.142C299.666 107.76 311.832 106.781 324.012 105.608C330.026 105.027 336.044 104.535 342.053 103.939C344.267 103.715 346.462 103.387 348.672 103.159C350.032 103.101 351.315 102.512 352.247 101.519C352.307 101.504 352.57 101.072 352.386 101.008Z" fill="#A25D3E"/>
</g>
<g style="mix-blend-mode:screen" opacity="0.5">
<path d="M177.168 102.28C162.395 102.111 147.628 102.776 132.86 102.866C125.516 102.906 118.167 102.985 110.817 102.901C107.123 102.856 103.424 102.727 99.7342 102.488C96.1539 102.26 92.4943 101.435 88.924 101.44H84.147C82.6573 101.44 81.1676 101.028 79.6481 100.978C76.2219 100.864 72.7757 100.978 69.3445 100.978C65.9132 100.978 62.3926 100.978 58.9465 101.112C55.5003 101.246 52.0889 101.768 48.6279 101.798C45.1668 101.827 41.7951 102.294 38.3639 102.294C35.0717 102.294 31.8043 101.971 28.5121 102.195C25.0908 102.429 21.6446 102.498 18.2283 102.801C16.5251 102.95 14.8318 103.233 13.1435 103.522C11.3558 103.825 9.22555 104.515 7.51241 103.735C7.45779 103.735 7.36346 103.845 7.40815 103.869C9.51358 104.898 12.4483 103.894 14.658 103.591C18.0594 103.119 21.4559 103.139 24.8723 102.93C28.6595 102.688 32.4566 102.641 36.2485 102.791C39.7245 102.93 43.0862 102.448 46.5373 102.419C53.4346 102.369 60.2772 101.778 67.1894 101.793L77.5626 101.817C80.9392 101.817 84.2165 102.314 87.6031 102.314C91.1436 102.314 94.7238 103.035 98.2693 103.308C101.954 103.586 105.648 103.705 109.343 103.775C116.692 103.914 124.046 103.805 131.395 103.775C146.625 103.676 161.834 102.662 177.079 102.453C177.114 102.448 177.213 102.285 177.168 102.28Z" fill="#A25D3E"/>
</g>
<g style="mix-blend-mode:screen" opacity="0.5">
<path d="M585.373 94.5487C577.587 95.3188 569.796 96.0392 561.98 96.2727C555.028 96.4715 548.077 96.1485 541.125 96.7C533.592 97.2962 526.104 98.3843 518.581 98.901C510.636 99.4426 502.725 99.6612 494.825 100.392C487.064 101.127 479.362 102.379 471.586 103C467.534 103.333 463.487 103.293 459.425 103.462C455.363 103.631 451.48 103.959 447.453 103.8C431.906 103.214 416.348 103.447 400.776 103.492C395.18 103.492 389.593 102.573 383.962 102.607L375.253 102.672C372.492 102.702 369.706 103.576 367.01 102.757C366.96 102.757 366.866 102.876 366.925 102.896C370.049 103.919 373.753 102.96 376.986 102.99C380.958 103.03 384.965 102.96 388.948 103.154C392.493 103.323 396.034 103.715 399.564 104.078C403.363 104.471 407.405 104.103 411.229 104.113C419.207 104.136 427.185 104.159 435.163 104.182C442.81 104.182 450.328 104.744 457.975 104.346C465.622 103.949 473.006 103.785 480.554 102.901C488.633 101.952 496.677 100.983 504.801 100.516C512.354 100.084 519.852 99.7556 527.355 98.752C534.959 97.7125 542.614 97.0889 550.286 96.8839C555.912 96.7447 561.528 96.7845 567.169 96.4317C573.223 96.0541 579.256 95.3884 585.279 94.7176C585.344 94.7375 585.468 94.5487 585.373 94.5487Z" fill="#A25D3E"/>
</g>
<g style="mix-blend-mode:screen" opacity="0.5">
<path d="M588.744 75.2713C581.415 77.3978 573.257 76.8413 565.709 77.2934C557.903 77.7654 550.127 79.246 542.296 79.2361C526.679 79.2361 511.072 80.3093 495.47 80.8458C488.101 81.0992 480.732 81.0545 473.373 81.5365C465.562 82.0333 457.761 82.2569 449.935 82.4606C442.199 82.6593 434.472 83.0667 426.736 83.1313C418.999 83.1959 411.198 83.0419 403.427 83.022C394.176 83.022 384.96 82.4308 375.729 81.9488C371.051 81.7103 366.363 81.6805 361.701 81.2433C357.038 80.8061 352.445 80.195 347.797 80.0012C329.499 79.246 311.126 81.3576 292.867 79.5839C292.778 79.5839 292.634 79.8075 292.728 79.8174C307.938 81.4818 323.311 80.3738 338.581 80.5577C346.125 80.7238 353.656 81.271 361.145 82.1973C368.792 83.0618 376.622 83.1065 384.309 83.5288C414.972 85.1882 445.853 83.9958 476.476 82.3413C485.633 81.8445 494.909 81.6855 504.075 81.6507C513.798 81.6159 523.536 80.4583 533.263 80.2447C537.683 80.1503 542.152 80.3838 546.551 79.9863C551.279 79.569 555.986 78.8784 560.693 78.3765C565.401 77.8747 570.083 77.6561 574.791 77.3829C579.354 77.1046 584.3 76.8214 588.695 75.4651C588.724 75.4303 588.819 75.2465 588.744 75.2713Z" fill="#A25D3E"/>
</g>
<g style="mix-blend-mode:screen" opacity="0.5">
<path d="M593.094 80.5776C587.175 80.5776 581.255 81.4818 575.341 81.7849C568.886 82.1227 562.431 82.1376 555.975 82.2817C543.75 82.5152 531.45 82.4457 519.265 83.4592C512.546 84.0207 505.967 84.5572 499.218 84.597C492.604 84.6318 486.094 85.1932 479.505 85.5907C472.915 85.9881 466.276 87.0514 459.642 87.6625C456.236 87.9805 452.894 88.0948 449.527 88.7506C447.362 89.1729 445.227 88.8152 443.231 89.943C443.042 90.0523 442.655 90.4398 442.843 90.6734C443.38 91.354 443.896 91.4882 444.735 91.6074C445.799 91.7578 446.855 91.9618 447.898 92.2185C450.734 92.8942 453.857 92.775 456.767 92.8942C463.342 93.1526 469.946 93.088 476.525 92.9986C489.625 92.8098 502.704 92.1042 515.799 91.6571C528.893 91.2099 542.037 90.5491 555.156 90.2163C561.611 90.0523 568.037 89.9529 574.482 89.6747C580.094 89.4362 586.018 91.1652 591.51 89.5207C591.634 89.4859 591.847 89.1083 591.668 89.158C585.988 90.7181 579.691 89.004 573.877 89.2474C567.744 89.5008 561.621 89.5555 555.504 89.6747C542.707 89.9331 529.916 90.6286 517.124 91.0261C504.333 91.4236 491.591 92.0794 478.819 92.308C472.553 92.4222 466.281 92.4322 460.015 92.308C456.921 92.2384 453.837 91.9751 450.744 91.8608C449.446 91.7624 448.165 91.5123 446.925 91.1155C445.868 90.8125 444.691 91.0062 443.832 90.3256C445.788 89.5853 448.042 89.7939 450.083 89.4064C453.435 88.7705 456.847 88.7556 460.228 88.4425C466.852 87.8314 473.437 86.8228 480.091 86.4055C486.918 85.9732 493.667 85.4764 500.519 85.4516C506.706 85.4267 512.745 84.8752 518.892 84.3138C531.306 83.1909 543.924 83.3797 556.402 83.027C562.326 82.863 568.236 82.7984 574.155 82.4258C580.441 82.0333 586.708 80.9005 592.999 80.7564C593.054 80.7465 593.158 80.5776 593.094 80.5776Z" fill="#A25D3E"/>
</g>
<g style="mix-blend-mode:screen" opacity="0.5">
<path d="M578.191 40.418C574.155 41.3559 570.041 41.9246 565.901 42.1172C561.681 42.2712 557.5 42.9866 553.239 43.0413C544.971 43.1406 536.798 44.2138 528.634 45.5255C519.642 46.9564 510.758 49.0034 501.716 50.2504C492.579 51.4975 483.442 52.7346 474.271 53.7283C455.734 55.7157 437.217 55.502 418.606 55.7902C400.303 56.0734 381.999 56.6448 363.701 57.236C345.025 57.8372 326.359 58.657 307.699 59.5662C289.355 60.4605 270.988 61.007 252.659 62.1249C215.581 64.3855 178.547 67.4858 141.539 70.6805C119.594 72.5784 97.6474 74.4598 75.6993 76.3246C64.6656 77.2636 53.6518 78.0983 42.7026 79.8025C37.161 80.6571 31.6243 81.5166 26.0231 81.8346C23.2672 81.9886 20.4815 81.9588 17.7255 81.8693C16.3076 81.8173 14.8936 81.6879 13.4898 81.4818C13.1323 81.4321 10.3764 81.3179 12.1988 81.298C12.2832 81.298 12.4123 81.0794 12.3329 81.0794H11.3745C11.295 81.0794 11.1162 81.288 11.2304 81.3178C19.2946 83.2555 27.9497 82.4059 36.0835 81.3178C45.1259 80.1205 54.069 78.8336 63.166 78.0685C81.5389 76.5614 99.9117 75.0212 118.285 73.4479C155.12 70.3277 191.955 67.1579 228.834 64.5843C266.444 61.956 304.163 60.4903 341.832 58.9799C360.309 58.2347 378.801 57.703 397.284 57.236C415.463 56.7739 433.691 57.0919 451.856 56.4013C473.536 55.5766 495.25 52.516 516.558 48.5761C526.951 46.6583 537.389 44.9541 547.931 44.1045C552.817 43.7219 557.678 44.02 562.555 43.3443C567.798 42.614 572.853 42.2612 577.998 40.8601C578.147 40.8204 578.415 40.3931 578.191 40.418Z" fill="#A25D3E"/>
</g>
<g style="mix-blend-mode:screen" opacity="0.5">
<path d="M585.839 26.0891C577.948 28.5733 569.497 29.6961 561.323 30.8985C552.539 32.1952 543.651 32.6325 534.802 33.343C525.496 34.0882 516.24 34.9279 506.885 35.4247C497.624 35.9216 488.358 36.3786 479.078 36.8755C460.705 37.8692 442.456 39.3845 424.143 40.8502C405.502 42.3407 386.771 41.7395 368.091 42.2563C349.604 42.7531 331.166 43.9952 312.659 43.9803C294.152 43.9654 275.755 41.9333 257.253 40.9993C238.88 40.0851 220.507 39.5882 202.204 37.9089C184.372 36.2693 166.556 34.5105 148.709 33.0299C138.003 32.1356 127.357 30.7494 116.646 29.8502C105.414 28.9012 94.1567 28.5534 82.8797 28.2007C71.9255 27.8628 60.9813 27.3809 50.1065 26.0791C44.7933 25.4432 39.3957 25.468 34.0626 24.7874C31.5798 24.4744 29.1715 23.9924 26.6688 24.1564C23.7887 24.3501 20.9881 24.996 18.0931 25.0706C17.9988 25.0706 17.8547 25.319 17.9441 25.314C21.8024 25.2445 25.7551 23.9874 29.5836 24.5489C34.1818 25.2196 38.7799 25.8407 43.4129 26.1785C52.4801 26.8393 61.5324 27.8032 70.6245 28.2801C88.6299 29.2142 106.605 29.4378 124.556 31.3109C160.448 35.067 196.394 39.2156 232.425 40.89C241.606 41.3272 250.798 41.6799 259.974 42.1619C269.15 42.6438 278.347 43.6027 287.538 44.2188C306.095 45.4559 324.726 44.9939 343.302 44.348C352.469 44.03 361.62 43.404 370.797 43.1903C379.973 42.9767 389.17 42.9916 398.371 42.8624C416.61 42.6041 434.62 40.6515 452.809 39.3448C475.825 37.6903 498.89 36.7662 521.916 35.2409C527.19 34.8931 532.458 34.0981 537.737 33.6659C543.432 33.1691 549.128 32.7567 554.808 32.1257C559.992 31.5494 565.092 30.5905 570.227 29.721C575.47 28.8267 580.709 27.8926 585.774 26.2431C585.839 26.2381 585.923 26.0642 585.839 26.0891Z" fill="#A25D3E"/>
</g>
<g style="mix-blend-mode:screen" opacity="0.5">
<path d="M254.785 47.5774C251.508 47.1203 248.255 46.6334 244.938 46.3005C237.237 45.5255 229.545 45.1628 221.818 44.4573C214.092 43.7518 206.38 42.609 198.629 42.0675C183.439 41.0042 168.338 39.4988 153.178 37.9735C137.825 36.4333 122.516 35.7477 107.087 35.7079C91.2768 35.6731 75.5606 33.4224 59.8344 31.912C51.8894 31.1519 43.9444 30.5408 35.9994 30.2923C28.258 30.0489 20.5662 30.6203 12.8298 30.7544C10.4215 30.7991 8.00812 30.819 5.59483 30.8587C5.49055 30.8587 5.3267 31.127 5.43098 31.132C12.6758 31.2513 19.876 30.9432 27.1159 30.8339C35.0261 30.7196 42.9612 31.1966 50.8417 31.8276C58.7221 32.4586 66.7019 33.3529 74.632 34.0336C82.5621 34.7142 90.3433 36.0209 98.2684 36.2743C106.02 36.5426 113.781 36.3141 121.537 36.5078C129.209 36.6966 136.906 37.2531 144.553 37.8791C159.743 39.1162 174.843 41.357 190.078 42.2811C197.715 42.7432 205.278 43.4189 212.885 44.2685C220.681 45.1479 228.482 45.4609 236.293 46.1217C239.948 46.4347 243.593 46.9315 247.247 47.2545C248.919 47.3816 250.579 47.6341 252.213 48.0097C253.588 48.3376 254.994 48.1239 256.275 48.8742C258.485 50.1759 254.289 51.6813 253.469 51.9745C251.573 52.6317 249.64 53.1759 247.679 53.6041C238.245 55.8299 228.348 57.4496 218.65 57.6384C210.824 57.8024 202.974 57.6384 195.143 57.6384C187.496 57.6384 179.854 58.1353 172.236 58.7265C157.652 59.8543 143.053 60.54 128.464 61.5486C114.129 62.5423 99.9517 63.7943 85.7153 65.7419C78.5896 66.7107 71.4044 67.4312 64.2588 68.2857C57.4013 69.1105 50.4196 70.0147 43.5074 70.0992C36.923 70.1787 30.3684 71.4506 23.8088 72.0866C17.0853 72.7126 10.3619 73.9398 3.62846 74.3372C3.56887 74.3372 3.48939 74.4863 3.53905 74.4813C9.92982 74.1186 16.3206 73.11 22.7064 72.6182C26.2121 72.3499 29.7228 72.3002 33.2186 71.8679C37.3661 71.3197 41.5437 71.0294 45.7271 70.9985C48.6419 70.9985 51.7454 70.5016 54.6652 70.2284C58.6725 69.8657 62.6748 69.3639 66.6721 68.877C74.4383 67.923 82.2245 67.0834 89.9758 66.0301C105.483 63.9135 121.056 62.8751 136.653 61.8367C144.598 61.3399 152.543 61.0915 160.488 60.4406C168.726 59.7699 176.949 58.9998 185.197 58.5973C200.332 57.862 215.562 59.3029 230.622 57.3254C238.125 56.3317 246.016 55.1791 253.176 52.6849C254.423 52.2527 257.392 51.3286 257.481 49.5896C257.551 48.1488 255.883 47.7314 254.785 47.5774Z" fill="#A25D3E"/>
</g>
<g style="mix-blend-mode:screen" opacity="0.5">
<path d="M117.223 49.9324C111.517 47.0706 104.948 46.5589 98.7206 45.7491C90.9892 44.7554 83.203 44.2585 75.4517 43.399C64.865 42.2463 54.2981 40.9496 43.6717 40.1646C38.423 39.777 33.2041 39.6677 27.9455 39.6677C23.397 39.6677 18.0142 39.9261 13.7388 38.1772C13.7041 38.1772 13.6395 38.2617 13.6693 38.2766C15.9435 39.31 18.8087 39.7025 21.2865 39.9062C25.2044 40.2242 29.1471 40.1298 33.075 40.1944C40.8462 40.3087 48.6522 41.1881 56.3787 42.0128C71.8615 43.6673 87.4437 44.9939 102.862 47.1054C106.244 47.5725 109.62 48.0047 112.863 49.0928C114.114 49.5151 115.46 50.0865 116.666 50.5833C117.181 50.8208 117.67 51.1105 118.126 51.4478C119.72 52.5657 117.6 53.8475 116.582 54.1109C110.499 55.6958 104.168 55.8945 97.9758 56.9329C90.5988 58.197 83.1059 58.6501 75.6305 58.2843C68.4948 57.9266 61.538 57.5888 54.5066 58.9998C47.0582 60.4903 39.5154 61.1859 31.9528 61.7821C28.2385 62.0752 24.5887 62.4081 20.8893 62.8851C17.0459 63.3819 13.1777 62.11 9.40879 63.1633C9.33927 63.1633 9.21511 63.4018 9.31939 63.372C12.7556 62.4777 16.2713 63.6105 19.787 63.372C23.7595 63.1236 27.732 62.5522 31.7293 62.2789C39.2671 61.7821 46.8 61.1014 54.2187 59.6357C61.7416 58.1452 69.339 58.6768 76.9562 59.0693C83.9081 59.4271 90.7905 58.7216 97.663 57.6235C103.865 56.6299 110.112 56.133 116.269 54.8164C116.868 54.7247 117.443 54.5156 117.961 54.2009C118.48 53.8863 118.93 53.4724 119.288 52.983C120.311 51.5521 118.31 50.474 117.223 49.9324Z" fill="#A25D3E"/>
</g>
<g style="mix-blend-mode:screen" opacity="0.5">
<path d="M49.6259 48.0445C49.3372 47.6572 48.9733 47.3321 48.5561 47.0888C48.1389 46.8455 47.6769 46.689 47.1978 46.6285C45.5045 46.2658 43.7913 45.8733 42.0732 45.5851C38.4483 44.9839 34.7836 45.1777 31.1488 45.4211C27.1669 45.6208 23.1762 45.5644 19.2015 45.2522C17.5579 45.1479 15.9242 45.0336 14.2905 44.8349C13.0987 44.6958 12.0659 44.0797 10.8692 44.4076C10.8096 44.4076 10.7003 44.6063 10.7897 44.5865C11.9715 44.3082 12.9796 44.9541 14.1167 45.123C15.4525 45.3168 16.7981 45.446 18.1438 45.5553C20.8948 45.7838 23.6904 46.1962 26.4464 46.1465C32.5739 46.0223 38.4036 45.3864 44.4617 46.7427C45.7478 47.0309 47.2276 47.2396 48.3945 47.8557C50.5347 49.0332 47.451 50.6082 46.5671 50.946C43.8322 51.9163 41.0027 52.5957 38.1255 52.9731C35.3051 53.4153 32.4895 53.5147 29.7435 54.3543C26.9975 55.194 23.8841 55.815 21.004 56.4311C20.9246 56.4311 20.7707 56.6895 20.8998 56.6746C24.336 56.1777 27.7474 55.2635 31.124 54.4686C34.6446 53.6339 38.3539 53.6339 41.9093 52.8936C43.0663 52.6551 51.6519 50.8715 49.6259 48.0445Z" fill="#A25D3E"/>
</g>
<g style="mix-blend-mode:screen" opacity="0.5">
<path d="M164.472 45.5106C161.189 43.9604 158.349 42.8028 154.699 42.2662C150.379 41.6352 145.994 41.5855 141.654 41.203C134.206 40.5422 126.663 39.3199 119.309 38.1772C119.269 38.1772 119.205 38.2716 119.25 38.2766C124.786 39.3299 130.402 40.095 136.018 40.8502C139.34 41.2924 142.588 41.8439 145.95 42.0873C149.704 42.3007 153.443 42.7303 157.147 43.3742C160.047 43.9306 162.49 45.5006 165.137 46.6831C168.042 47.9848 164.521 50.8317 162.868 51.6515C161.378 52.4067 159.61 52.6899 157.972 53.0079C151.743 54.2504 145.596 55.8715 139.564 57.862C139.48 57.8918 139.311 58.1701 139.445 58.1353C143.239 57.1019 147.007 56.0187 150.866 55.1542C154.342 54.3841 157.887 53.8475 161.294 52.829C163.121 52.2875 165.445 51.11 166.557 49.4754C168.042 47.2545 166.527 46.4844 164.472 45.5106Z" fill="#A25D3E"/>
</g>
<g style="mix-blend-mode:screen" opacity="0.5">
<path d="M371.389 13.0272C363.514 14.0208 355.569 13.8469 347.649 13.7674C340.051 13.6879 332.484 12.8185 324.886 12.9874C317.289 13.1563 309.642 13.8469 302.014 14.0755C294.387 14.304 286.725 14.8357 279.063 15.407C246.831 17.8018 214.485 18.3433 182.169 18.4526C153.065 18.552 123.982 18.0353 94.8831 18.0651C87.7674 18.0651 80.6566 18.4526 73.5309 18.562C66.4946 18.6663 59.4434 18.5023 52.3972 18.6116C45.49 18.711 38.2104 18.6116 31.3926 17.4292C27.7776 16.7932 24.113 16.4355 20.4682 16.1374C17.3746 15.8691 14.3009 16.043 11.3314 15.0245C11.2917 15.0245 11.2172 15.1188 11.2619 15.1387C14.1767 16.2715 17.1958 16.1324 20.2646 16.4703C24.1924 16.8677 28.1103 17.3149 31.9884 18.0403C39.3624 19.4116 47.3173 19.3321 54.7906 19.2128C62.398 19.0886 70.0003 19.4066 77.5977 19.2128C85.4087 19.0041 93.1998 18.8551 101.016 18.865C116.652 18.865 132.269 19.3619 147.901 19.3966C163.93 19.3966 179.954 19.4563 195.978 19.3519C225.469 19.1532 254.965 18.3582 284.367 16.0082C291.914 15.407 299.462 15.2182 307.03 14.9549C314.309 14.7065 321.554 13.9115 328.849 13.9264C335.89 13.9264 342.916 14.4978 349.973 14.4481C357.029 14.3984 364.214 14.314 371.27 13.2855C371.369 13.2656 371.518 13.0122 371.389 13.0272Z" fill="#A25D3E"/>
</g>
<g style="mix-blend-mode:screen" opacity="0.5">
<path d="M229.664 8.73445C227.832 9.25613 225.999 9.14683 224.112 9.25613C222.444 9.3555 220.8 9.59895 219.147 9.62876C215.259 9.68839 211.351 9.41015 207.473 9.25117C200.107 8.93231 192.73 8.99367 185.371 9.435C177.565 9.93184 169.788 10.7417 161.997 11.4224C154.052 12.1328 146.192 12.267 138.217 12.2571C130.644 12.2571 123.106 11.9689 115.539 11.7602C107.971 11.5515 100.463 10.7665 92.8856 10.7665C85.4372 10.7665 78.0781 10.22 70.6595 10.3889C67.7844 10.4535 64.9986 11.2137 62.1434 11.472C60.5594 11.6161 59.02 11.9341 57.4608 12.2123C55.5888 12.5452 53.6224 12.4657 51.7255 12.6645C47.9417 13.047 44.0337 13.2209 40.235 13.3402C38.2488 13.3998 36.2625 12.9377 34.2763 12.8433C32.29 12.7489 30.2442 12.8433 28.2331 12.5452C26.222 12.2471 24.201 11.6658 22.175 11.2932C20.149 10.9205 17.9543 10.8659 15.8687 10.697C13.8575 10.4778 11.8656 10.1075 9.90994 9.58902C7.95348 9.1518 5.704 9.53437 3.71278 9.58902C3.61347 9.58902 3.43472 9.86228 3.54396 9.86228C5.24221 9.91693 6.94543 9.94674 8.63871 10.1008C10.332 10.2548 11.9657 11.0696 13.6937 11.2932C17.562 11.79 21.3606 11.8944 25.1941 12.739C28.67 13.5041 32.1063 13.3402 35.6468 13.4892C37.3748 13.5637 39.0334 13.8668 40.7614 13.7923C42.7477 13.7029 44.7339 13.4793 46.7202 13.365C49.7591 13.1961 52.8229 13.1116 55.8519 12.8085C57.3416 12.6595 58.8313 12.3365 60.3508 12.0931C62.1186 11.795 63.8764 11.8447 65.6392 11.5019C72.9238 10.0809 80.7148 11.6012 88.0888 11.6012H98.472C102.444 11.6012 106.467 12.3962 110.459 12.5402C118.041 12.8135 125.654 13.0371 133.241 13.0371C140.551 13.0371 147.88 13.2358 155.175 12.6794C162.921 12.1229 170.712 11.2584 178.513 10.5827C187.428 9.79217 196.379 9.4903 205.327 9.67845C209.568 9.77782 213.809 9.9219 218.054 9.92687C219.765 9.90629 221.473 9.78352 223.169 9.55921C225.364 9.30582 227.469 9.50952 229.624 8.8835C229.654 8.8686 229.738 8.71955 229.664 8.73445Z" fill="#A25D3E"/>
</g>
<g style="mix-blend-mode:screen" opacity="0.5">
<path d="M512.581 10.6721C506.732 11.8397 500.922 10.4734 495.112 9.74304C489.446 9.03256 483.607 9.09715 477.906 9.01268C472.32 8.92822 466.738 8.91828 461.152 8.89344C455.759 8.86363 450.446 8.27239 445.049 8.49597C434.223 8.94809 423.428 9.78278 412.613 10.1405C410.004 10.2026 407.393 10.123 404.792 9.90203C401.709 9.66851 398.575 9.84737 395.482 9.76788C392.472 9.69335 389.493 9.27104 386.479 9.3555C383.842 9.46137 381.213 9.72684 378.608 10.1504C378.539 10.1504 378.405 10.374 378.519 10.3641C381.356 10.0339 384.209 9.84986 387.065 9.8126C390.044 9.8126 392.999 10.374 395.963 10.543C398.719 10.697 401.51 10.5032 404.256 10.7814C407.134 11.0554 410.027 11.1384 412.916 11.0299C424.024 10.6622 435.102 9.77782 446.211 9.32569C451.32 9.12696 456.4 9.7182 461.515 9.68839C467.161 9.65857 472.801 9.61883 478.447 9.64864C484.198 9.67845 490.022 9.60392 495.748 10.2299C501.354 10.846 506.905 12.0037 512.522 10.8013C512.571 10.7963 512.646 10.6622 512.581 10.6721Z" fill="#A25D3E"/>
</g>
<g style="mix-blend-mode:screen" opacity="0.5">
<path d="M596.919 9.22135C593.711 10.5926 589.927 10.3542 586.491 10.6026C582.643 10.8758 578.794 11.1541 574.956 11.5118C567.055 12.2421 559.259 13.996 551.309 14.1798C536.338 14.5226 521.486 17.4341 506.485 17.2404C498.887 17.136 491.329 16.8876 483.747 16.3411C475.802 15.7647 467.778 16.0628 459.823 16.0579C444.548 16.0579 429.249 15.0145 414.005 16.1821C406.139 16.7833 398.308 17.6726 390.438 18.1148C386.823 18.3086 383.228 18.7706 379.613 18.8849C375.73 19.0091 371.837 18.7508 367.948 18.8153C360.604 18.9445 353.166 19.347 345.832 19.809C338.229 20.3059 330.691 20.5493 323.104 21.389C315.417 22.2336 307.71 22.6013 299.974 23.0931C291.815 23.6198 283.702 24.2756 275.533 24.6333C267.831 24.9662 260.189 25.3637 252.473 25.3736C249.557 25.3935 246.647 25.6176 243.763 26.0444C242.412 26.2332 240.287 26.6108 239.488 27.9324C237.998 30.4166 242.685 31.6835 244.309 32.0859C250.74 33.6858 257.523 32.9107 264.082 33.5367C271.868 34.277 279.818 34.128 287.634 34.4211C295.45 34.7142 303.137 34.7291 310.893 34.7391C326.093 34.7391 341.233 35.9464 356.438 35.6234C371.643 35.3005 386.982 33.8646 402.186 32.5182C410.295 31.7978 418.404 31.1022 426.518 30.6302C434.279 30.1781 442.105 30.4961 449.881 30.3073C465.195 29.9396 480.48 28.6776 495.799 28.3895C511.118 28.1013 526.372 27.7833 541.636 25.7214C549.413 24.6731 556.99 22.9292 564.861 22.5963C572.443 22.2684 579.926 20.7381 587.529 20.5443C589.515 20.4897 591.437 20.1171 593.403 20.0475C593.537 20.0475 593.736 19.7047 593.617 19.7047C586.486 19.8537 579.405 20.6984 572.294 21.1952C568.495 21.4685 564.801 21.9107 560.973 21.8759C557.298 21.8461 553.41 23.0136 549.775 23.5204C542.436 24.5538 535.146 25.7214 527.752 26.3822C519.539 27.1126 511.276 27.2119 503.038 27.3312C487.645 27.5448 472.326 28.4342 456.972 29.1347C449.206 29.4825 441.425 29.5173 433.634 29.5272C426.071 29.5272 418.513 30.2178 410.981 30.8488C395.091 32.1754 379.201 33.7454 363.286 34.5254C355.837 34.8931 348.2 35.2061 340.737 34.8335C333.06 34.4608 325.378 34.0981 317.691 33.9739C310.004 33.8497 302.268 33.9739 294.556 33.8497C286.716 33.7156 278.885 33.3529 271.044 33.1889C267.285 33.1194 263.596 32.6424 259.837 32.4586C255.998 32.2698 252.175 32.6225 248.346 32.1505C246.428 31.9417 244.54 31.5201 242.715 30.8935C241.815 30.5737 240.975 30.1033 240.232 29.5024C238.187 27.7883 242.348 26.8492 243.49 26.6455C250.829 25.3289 258.546 26.109 265.974 25.8009C273.403 25.4929 280.951 25.1749 288.399 24.7079C296.438 24.211 304.468 23.5453 312.512 23.0534C319.866 22.6062 327.156 21.6374 334.51 21.1406C342.375 20.6089 350.296 20.5245 358.176 20.2264C361.821 20.0922 365.461 19.7693 369.1 19.7544C373.018 19.7544 376.926 19.9581 380.839 19.7544C396.059 19.0389 411.199 16.5746 426.449 16.5001C433.549 16.4703 440.64 16.8628 447.731 16.9621C455.418 17.0615 463.125 16.9621 470.802 16.9621C485.137 16.9621 499.473 18.7855 513.814 17.9558C520.537 17.5683 527.266 16.8677 533.974 16.2715C537.565 15.9535 541.14 15.4915 544.725 15.1934C548.31 14.8953 551.87 14.9996 555.436 14.6965C562.805 14.0705 570.06 12.4608 577.429 11.7403C580.944 11.3925 584.49 11.2435 587.995 10.7914C591.029 10.4088 594.009 10.6224 596.859 9.32569C596.929 9.3406 597.013 9.18161 596.919 9.22135Z" fill="#A25D3E"/>
</g>
<g style="mix-blend-mode:screen" opacity="0.5">
<path d="M593.094 14.5127C585.794 14.5723 578.579 16.8031 571.374 17.8564C567.789 18.3831 564.189 18.8501 560.589 19.3022C556.358 19.8438 552.122 19.4563 547.877 19.6401C540.801 19.9531 533.73 20.3555 526.639 20.4798C518.758 20.6139 510.878 20.4798 502.992 20.7381C487.44 21.2896 472.141 24.3104 456.539 24.3054C442.084 24.3054 427.654 22.1839 413.204 23.0683C404.266 23.6148 395.328 23.5154 386.419 24.1017C377.511 24.688 368.598 25.2047 359.694 25.8605C357.619 26.0146 355.573 26.1984 353.497 26.253C351.228 26.3176 349.003 26.253 346.754 26.253C342.578 26.253 338.481 26.0046 334.34 25.8456C332.239 25.7661 330.164 26.0642 328.043 25.94C326.052 25.8729 324.058 25.976 322.084 26.2481C319.691 26.5114 317.273 26.4766 314.869 26.7449C312.188 27.038 309.536 27.4305 306.83 27.51C306.741 27.51 306.597 27.7436 306.691 27.7436C313.976 27.7436 321.27 26.094 328.54 26.6157C331.887 26.8542 335.189 26.6157 338.55 26.9238C341.912 27.2318 345.378 27.0132 348.77 27.2765C351.709 27.5001 354.887 27.1076 357.827 26.8393C361.333 26.5114 364.863 26.2829 368.379 26.0245C371.895 25.7661 375.361 25.8605 378.807 25.5277C382.988 25.1501 387.169 24.7824 391.37 24.6781C398.818 24.4893 406.222 24.2359 413.646 23.8483C421.144 23.4608 428.508 23.9626 435.991 24.4893C450.735 25.5507 465.546 25.2513 480.235 23.5949C489.893 22.5019 499.407 21.548 509.145 21.3542C518.654 21.1654 528.143 21.1008 537.652 20.7828C541.744 20.6437 545.866 20.2164 549.952 20.2015C554.623 20.2209 559.29 19.9238 563.921 19.3122C568.504 18.6812 573.087 18.0005 577.646 17.2006C582.79 16.2964 587.716 14.8009 592.98 14.6767C593.054 14.6816 593.153 14.5127 593.094 14.5127Z" fill="#A25D3E"/>
</g>
<g style="mix-blend-mode:screen" opacity="0.5">
<path d="M403.72 27.9721C400.513 27.9175 397.31 28.2205 394.102 28.2752C391.028 28.3298 388.029 28.2752 384.98 28.7472C381.688 29.244 378.331 28.8863 375.024 29.3335C371.498 29.8303 367.61 29.2937 364.06 29.1645C360.644 29.0403 357.257 28.7273 353.836 28.7919C350.414 28.8565 347.102 29.1596 343.731 29.2887C340.637 29.398 337.509 29.1496 334.43 29.5769C332.75 29.7979 331.059 29.9174 329.365 29.9346C328.163 29.9595 326.619 30.4315 325.576 30.0191C325.547 30.0191 325.487 30.1036 325.512 30.1135C326.068 30.3619 326.659 30.6749 327.289 30.4215C328.67 29.87 330.567 30.2476 332.022 30.2178C335.274 30.1483 338.477 29.8353 341.769 29.8551C345.061 29.875 348.398 29.6216 351.701 29.4974C355.388 29.4188 359.077 29.5265 362.754 29.8204C376.385 30.6352 389.906 28.782 403.522 28.2951C403.646 28.2503 403.845 27.9721 403.72 27.9721Z" fill="#A25D3E"/>
</g>
<g style="mix-blend-mode:screen" opacity="0.5">
<path d="M592.176 52.054C589.257 52.0745 586.342 52.252 583.442 52.5856C579.737 53.1271 576.088 52.5856 572.359 52.7694C564.806 53.1371 557.268 53.1023 549.71 53.2663C534.65 53.5594 519.917 56.3268 504.995 58.0558C489.601 59.8295 474.208 61.2703 458.785 62.7956C450.84 63.5807 442.939 64.3408 434.95 64.3557C427.809 64.3557 420.672 64.5661 413.538 64.9867C402.916 65.5978 392.285 66.0996 381.663 66.7157C370.679 67.3517 359.715 68.4596 348.706 68.559C348.657 68.559 348.582 68.6832 348.627 68.6832C356.075 68.713 363.524 68.2808 370.972 67.8137C378.987 67.3169 386.992 67.1231 395.011 66.8201C402.489 66.512 409.943 65.7916 417.426 65.5978C424.552 65.414 431.637 65.1954 438.778 65.2103C446.227 65.2103 453.759 64.1719 461.158 63.4515C468.825 62.7062 476.477 61.7871 484.149 61.0965C491.821 60.4058 499.592 59.6854 507.294 58.7712C514.866 57.867 522.389 56.5901 529.967 55.7107C540.941 54.4388 551.846 54.2202 562.884 54.2202C568.033 54.2202 573.118 53.6488 578.278 53.8674C582.851 54.0662 587.449 52.8141 591.983 52.4216C592.117 52.362 592.296 52.049 592.176 52.054Z" fill="#A25D3E"/>
</g>
<g style="mix-blend-mode:screen" opacity="0.5">
<path d="M591.595 56.0088C590.641 56.7094 588.868 56.446 587.682 56.5901C586.147 56.7739 584.603 56.8584 583.059 56.9776C579.126 57.2708 575.213 57.8769 571.305 58.3986C563.688 59.4171 555.966 59.2929 548.299 59.8394C532.563 60.9623 516.907 62.9695 501.28 65.1209C493.628 66.1742 485.981 67.2473 478.353 68.4596C474.818 69.0211 471.292 69.662 467.796 70.4221C466.153 70.7848 464.321 70.7202 462.662 70.919C461.172 71.0978 459.683 71.5102 458.193 71.6096C456.773 71.699 455.119 71.9474 453.967 72.8418C453.361 73.3088 453.004 74.2528 453.932 74.5509C456.46 75.3558 459.484 74.8341 462.096 74.7745C466.143 74.685 470.13 73.9795 474.162 73.7808C484.312 73.3336 494.477 73.3386 504.636 73.3336C509.433 73.3336 514.22 73.6566 519.012 73.751C523.913 73.8454 528.794 73.3336 533.7 73.3336C538.348 73.3336 542.902 72.8368 547.544 73.1746C549.665 73.3237 551.8 73.3287 553.93 73.3336C556.061 73.3386 557.664 73.905 559.839 73.4032C562.014 72.9014 564.611 73.3187 566.791 73.3137C568.977 73.2912 571.156 73.0817 573.306 72.6877C575.95 72.1442 578.634 71.8201 581.331 71.7189C582.622 71.7189 584.27 71.4158 585.333 70.6209C585.412 70.5563 585.507 70.288 585.333 70.4122C584.042 71.3015 581.39 71.2419 579.901 71.2171C578.399 71.1508 576.895 71.2912 575.431 71.6344C571.459 72.5834 567.382 72.5486 563.31 72.5337C562.026 72.4611 560.737 72.5411 559.472 72.7722C557.724 73.1746 556.17 72.5238 554.427 72.5238C550.857 72.5238 547.247 71.9822 543.701 72.0617C540.255 72.1412 536.844 72.5238 533.387 72.5238C529.609 72.5238 525.904 72.8616 522.135 72.9461C514.647 73.1051 507.129 72.5138 499.636 72.5238C491.919 72.5238 484.203 72.6033 476.491 72.8914C469.564 73.1448 462.478 74.7049 455.541 73.9944C454.633 73.9 453.992 73.2492 455.214 72.8517C455.671 72.7168 456.137 72.6138 456.609 72.5437C457.448 72.3946 458.287 72.3847 459.131 72.2207C462.766 71.5102 466.416 71.396 470.056 70.6557C477.465 69.1651 484.982 68.1715 492.466 67.0834C509.975 64.5992 527.543 62.1498 545.171 60.7536C553.796 60.073 562.501 60.0978 571.072 58.9253C575.322 58.3489 579.553 57.6732 583.823 57.2807C585.551 57.1217 587.25 56.8882 588.968 56.6994C589.991 56.5802 590.78 56.7491 591.6 56.1082C591.639 56.0933 591.689 55.9442 591.595 56.0088Z" fill="#A25D3E"/>
</g>
<g style="mix-blend-mode:screen" opacity="0.5">
<path d="M595.422 61.3548C594.4 62.5969 591.311 62.8453 589.836 63.1484C587.651 63.5657 585.422 63.6452 583.222 64.003C578.082 64.8476 572.923 65.6972 567.769 66.4325C562.803 67.143 557.838 67.0436 552.872 67.3566C550.28 67.5156 547.698 67.6895 545.101 67.7591C543.373 67.8088 541.724 67.9827 540.08 67.5256C541.406 67.0784 542.851 66.984 544.227 66.7058C546.357 66.2686 548.453 65.3792 550.568 64.8327C555.452 63.5579 560.397 62.5314 565.385 61.7572C570.351 60.9971 575.376 60.6195 580.362 60.068C582.661 59.8146 584.97 59.6656 587.264 59.3923C589.667 59.1041 592.125 59.2432 594.454 58.5477C594.504 58.5477 594.593 58.3738 594.519 58.3986C592.458 58.965 590.328 58.7762 588.212 59.0048C585.655 59.283 583.083 59.4519 580.521 59.7053C575.555 60.2021 570.589 60.5748 565.624 61.1958C560.655 61.9114 555.726 62.8798 550.856 64.0974C548.542 64.6439 546.312 65.5879 543.988 66.035C542.33 66.3779 540.656 66.4325 539.147 67.2672C538.993 67.3566 538.501 67.8584 538.829 67.9926C540.701 68.7627 542.643 68.5987 544.619 68.4894C546.948 68.3603 549.272 68.2957 551.601 68.1367C557.559 67.7243 563.399 67.779 569.323 66.8499C572.069 66.4176 574.785 65.8562 577.536 65.419C580.431 64.9569 583.495 64.0924 586.41 63.9732C588.331 63.9322 590.233 63.5799 592.041 62.9298C593.228 62.433 594.648 62.433 595.477 61.3647C595.532 61.33 595.477 61.2853 595.422 61.3548Z" fill="#A25D3E"/>
</g>
<g style="mix-blend-mode:screen" opacity="0.5">
<path d="M294.738 70.4569C291.61 70.9985 288.457 70.7451 285.304 71.1028C281.545 71.5301 277.696 71.3562 273.917 71.6444C270.405 71.916 266.896 72.1859 263.39 72.4542C259.482 72.7473 255.545 72.484 251.627 72.5486C248.369 72.6033 245.092 73.0156 241.839 73.2343C237.982 73.4104 234.137 73.7885 230.319 74.367C222.697 75.6837 214.757 75.9818 207.045 76.4985C191.344 77.5468 175.613 78.0983 159.951 79.6882C143.758 81.3278 127.54 82.4059 111.288 83.3151C93.4514 84.3088 75.6496 86.321 57.7734 86.5297C48.8749 86.634 39.9814 86.5645 31.093 87.0663C26.9726 87.2352 22.8648 87.6316 18.7882 88.2537L12.8294 89.2474C10.6197 89.62 8.15175 90.7876 6.01653 89.7443C5.95694 89.7144 5.8477 89.8635 5.89736 89.8883C8.21134 91.1205 11.0666 89.8287 13.5097 89.4859C17.3481 88.9394 21.1667 88.4028 25.0349 88.0848C33.2232 87.419 41.4215 87.3197 49.6595 87.3147C65.331 87.3147 80.8486 86.2217 96.4705 85.1038C112.361 83.961 128.31 83.3797 144.21 82.1227C160.289 80.8309 176.298 79.2709 192.411 78.3666C201.186 77.8698 209.96 77.3729 218.729 76.5879C227.707 75.788 236.635 74.1484 245.658 73.8801C249.779 73.7609 253.866 73.3833 258.007 73.3436C262.149 73.3038 266.111 72.8467 270.173 72.4741C274.588 72.0468 278.972 71.8332 283.392 71.5798C287.091 71.3661 290.984 71.3214 294.639 70.6358C294.723 70.6109 294.823 70.442 294.738 70.4569Z" fill="#A25D3E"/>
</g>
<g style="mix-blend-mode:screen" opacity="0.5">
<path d="M271.565 77.7257C269.783 78.8784 267.836 79.0523 265.765 79.087C263.839 79.1168 261.937 79.3106 260.005 79.4199C256.087 79.6435 252.165 79.7975 248.247 80.0559C239.736 80.6372 231.294 82.3761 222.768 82.7835C214.962 83.1512 207.131 83.176 199.345 83.9908C197.279 84.2095 195.214 84.4877 193.158 84.8007C190.909 85.1286 188.535 85.9633 186.271 86.0229C182.517 86.1322 178.604 87.2054 174.85 86.6489C174.641 86.6191 174.259 87.1458 174.502 87.2153C177.829 87.9507 181.648 87.2948 185.009 86.9669C189.086 86.5744 193.128 85.5907 197.21 85.069C206.118 83.9362 215.131 83.961 224.084 83.4592C228.012 83.2406 231.955 82.4109 235.858 81.8991C240.783 81.2533 245.759 80.7018 250.73 80.4832C254.642 80.3142 258.57 79.9515 262.473 79.569C265.532 79.2709 268.884 79.5938 271.55 77.8201C271.61 77.7903 271.645 77.6561 271.565 77.7257Z" fill="#A25D3E"/>
</g>
<g clip-path="url(#clip1_104_1971)">
<path d="M526.995 24.2828C526.446 23.877 526.636 22.254 526.462 21.2145C526.217 19.9341 525.888 18.6708 525.479 17.4328C524.737 15.1661 523.706 13.004 522.41 11C523.977 12.9026 525.284 15.0036 526.298 17.2482C526.857 18.4741 527.336 19.735 527.731 21.023C528.024 22.0443 528.484 23.7038 528.308 24.1414C528.093 24.6475 527.573 24.709 526.995 24.2828Z" fill="url(#paint0_linear_104_1971)"/>
<path d="M524.58 47.2215C523.318 47.2215 522.257 47.2215 522.248 46.0362C522.248 44.8372 522.394 44.4086 523.54 44.5659C524.686 44.7232 534.953 43.9824 536.448 43.7704C537.944 43.5584 538.17 43.9185 537.512 45.1153C536.67 46.6403 537.729 47.9783 536.48 48.1083C535.232 48.2382 524.58 47.2215 524.58 47.2215Z" fill="url(#paint1_linear_104_1971)"/>
<path d="M522.272 50.4357C521.071 49.9798 520.065 49.5763 520.568 48.473C521.071 47.3697 522.194 47.413 523.392 47.8758C523.392 47.8758 532.66 51.2061 534.983 51.6962C537.307 52.1863 536.747 53.2395 535.519 53.7638C533.778 54.5092 533.945 56.253 532.717 55.4278C527.058 51.6233 522.272 50.4357 522.272 50.4357Z" fill="url(#paint2_linear_104_1971)"/>
<path d="M523.696 43.6769C522.639 44.1898 521.745 44.6183 521.228 43.7134C520.712 42.8016 521.414 42.1177 522.47 41.6071L532.209 36.2913C533.266 35.7784 532.33 37.2167 533.702 38.1149C534.134 38.3953 534.727 38.4477 534.944 38.6483C535.161 38.8489 535.01 39.1931 534.459 39.3754C530.805 40.5722 523.696 43.6769 523.696 43.6769Z" fill="url(#paint3_linear_104_1971)"/>
<path d="M521.45 41.7211C520.883 42.4847 519.392 40.9096 519.948 40.1436C520.991 39.2023 521.925 38.1471 522.731 36.9979C523.932 35.2427 525.672 32.5073 525.672 32.5073C525.96 32.2474 525.958 33.2139 527.057 33.3347C528.018 33.4419 529.344 32.8788 528.48 33.9981C527.096 35.7738 521.45 41.7211 521.45 41.7211Z" fill="url(#paint4_linear_104_1971)"/>
<path d="M528.641 32.5255C528.641 32.913 528.051 33.5376 527.324 33.5285C526.597 33.5285 525.975 33.1182 526.007 32.4959C526.188 28.9968 526.778 28.2856 526.869 27.098C526.995 25.4385 526.547 25.2356 526.629 24.5654C526.711 23.8952 526.951 24.1825 527.315 24.2827C528.23 24.5267 528.779 23.3709 528.792 24.2007C528.811 25.2561 528.589 26.3343 528.509 27.2666C528.234 30.5697 528.641 32.5255 528.641 32.5255Z" fill="url(#paint5_linear_104_1971)"/>
<path d="M535.479 37.2167C535.005 38.0032 534.427 38.4294 533.796 38.1833C533.165 37.9371 532.565 37.1757 532.803 36.4987C534.5 31.6319 534.877 32.7443 535.582 30.2688C535.854 29.3136 535.771 27.7613 536.087 27.4878C536.403 27.2142 536.611 27.6747 537.459 27.3875C538.374 27.0774 538.621 27.1321 538.102 27.9915C538.095 27.9915 535.957 36.428 535.479 37.2167Z" fill="url(#paint6_linear_104_1971)"/>
<path d="M537.308 47.4472C536.689 46.9001 536.455 45.8949 537.114 45.2612C537.773 44.6274 538.632 44.2399 539.691 45.1586C539.691 45.1586 547.317 53.007 548.365 53.5814C549.86 54.3997 550.132 54.671 548.776 55.0494C548.056 55.25 547.69 56.1664 547.066 55.9202C546.441 55.674 547.038 55.2888 544.882 53.1984C542.998 51.3817 542.394 51.9401 537.308 47.4472Z" fill="url(#paint7_linear_104_1971)"/>
<path d="M533.686 55.5304C533.325 54.7462 534.05 53.7455 535.04 53.4036C536.03 53.0617 537.036 53.7136 537.274 54.2926C537.274 54.2926 540.603 65.2343 541.465 66.716C541.966 67.5708 542.38 68.2113 540.917 67.9264C540.029 67.7554 539.462 68.6627 539.316 67.548C539.204 66.7069 538.859 65.4622 538.083 63.8666C537.308 62.2709 536.709 62.0772 533.686 55.5304Z" fill="url(#paint8_linear_104_1971)"/>
<path d="M541.476 68.3094C541.618 68.8906 541.213 69.4947 541.051 70.0783C539.382 76.005 535.46 81.2023 530.66 85C535.073 80.8832 538.57 75.4397 539.661 69.4583C539.743 69.0023 539.869 68.2569 540.196 67.833C540.523 67.409 541.334 67.7258 541.476 68.3094Z" fill="#231F20"/>
<path d="M536.321 27.2438C536.012 26.6762 536.321 24.8959 536.147 23.7152C535.962 22.4422 535.639 21.1932 535.182 19.9904C534.4 17.9161 533.154 15.8463 531.605 14.4512C533.407 15.6821 534.891 17.6927 535.95 19.7647C536.556 20.9742 537.029 22.2452 537.361 23.5556C537.679 24.7455 538.232 26.7469 537.94 27.2028C537.647 27.6587 536.622 27.8092 536.321 27.2438Z" fill="#231F20"/>
<path d="M549.627 55.2842C550.162 56.0752 549.97 57.6617 549.947 58.863C549.939 60.3597 549.781 61.8518 549.476 63.3172C548.9 65.925 547.946 68.6034 546.4 70.81C547.537 68.4814 548.22 65.9589 548.413 63.3765C548.55 61.6441 548.657 60.2535 548.317 58.5485C548.088 57.4315 547.317 56.5448 547.631 55.6968C547.944 54.8488 549.096 54.5 549.627 55.2842Z" fill="#231F20"/>
<path style="mix-blend-mode:screen" d="M527.192 23.7972C527.13 23.7536 527.079 23.695 527.045 23.6269C527.011 23.5589 526.995 23.4834 526.998 23.4074C526.998 23.0928 526.964 22.7851 526.938 22.4728C526.864 21.796 526.755 21.1235 526.611 20.4577C526.355 19.198 526.033 17.9525 525.646 16.7261C526.164 17.8716 526.58 19.0599 526.89 20.2776C527.072 20.9513 527.207 21.6368 527.293 22.3292C527.339 22.7053 527.57 23.526 527.192 23.7972Z" fill="url(#paint9_linear_104_1971)"/>
<path style="mix-blend-mode:screen" d="M520.912 39.8017C523.325 37.2942 525.568 33.3666 525.794 33.2663C526.066 33.1432 526.318 34.324 528.337 33.6972C528.047 34.2716 526.448 33.8681 525.55 34.609C524.521 35.4706 522.886 38.0898 520.912 39.8017Z" fill="url(#paint10_linear_104_1971)"/>
<path d="M522.744 41.9239C525.996 40.4103 532.12 36.6811 532.348 36.6925C532.648 36.6925 532.234 38.393 534.322 38.7189C533 39.1521 532.721 37.6134 531.562 37.8071C530.402 38.0009 525.292 41.019 522.744 41.9239Z" fill="url(#paint11_linear_104_1971)"/>
<path d="M523.492 44.9238C527.082 44.9238 536.803 44.1282 537.023 44.2399C537.288 44.3767 536.25 46.1411 536.583 47.568C535.721 47.2352 536.929 45.2361 535.801 44.9238C534.674 44.6115 526.186 45.1837 523.492 44.9238Z" fill="url(#paint12_linear_104_1971)"/>
<path style="mix-blend-mode:screen" d="M524.291 48.7511C527.625 50.0755 535.64 52.3094 535.802 52.4963C535.999 52.7243 533.541 53.6361 533.321 55.0813C532.635 54.4545 534.741 53.2577 533.811 52.5488C532.88 51.8398 526.699 49.982 524.291 48.7511Z" fill="url(#paint13_linear_104_1971)"/>
<path style="mix-blend-mode:screen" d="M527.163 27.604C526.893 28.3608 526.15 32.3705 526.53 32.7329C526.909 33.0954 527.639 33.0429 527.938 32.8788C526.008 32.5073 527.435 26.8472 527.163 27.604Z" fill="url(#paint14_linear_104_1971)"/>
<path style="mix-blend-mode:screen" d="M535.456 31.7436C534.969 32.3864 533.011 36.2434 533.169 36.7449C533.368 37.4014 533.896 37.8117 534.445 37.8071C532.753 36.0223 535.936 31.1031 535.456 31.7436Z" fill="url(#paint15_linear_104_1971)"/>
<path style="mix-blend-mode:screen" d="M544.692 50.7844C544.217 50.1348 539.09 45.0674 538.566 45.0651C537.88 45.0651 537.334 45.9154 537.389 46.3713C538.786 44.2285 542.861 49.5056 544.692 50.7844Z" fill="url(#paint16_linear_104_1971)"/>
<path style="mix-blend-mode:screen" d="M539.206 62.4533C539.119 61.6555 537.002 54.5023 536.547 54.247C535.95 53.9028 535.053 54.3701 534.875 54.7918C536.931 53.9644 538.259 60.4359 539.206 62.4533Z" fill="url(#paint17_linear_104_1971)"/>
<path d="M526.854 24.4947C527.311 25.0532 528.335 24.9324 528.601 24.2828C528.246 24.5654 527.544 24.6885 526.854 24.4947Z" fill="url(#paint18_linear_104_1971)"/>
<path d="M536.141 27.7476C536.598 28.3038 537.625 28.183 537.89 27.5333C537.538 27.8183 536.831 27.9482 536.141 27.7476Z" fill="url(#paint19_linear_104_1971)"/>
<path d="M549.031 54.5707C548.391 54.2356 547.495 54.7462 547.504 55.4483C547.721 55.0494 548.32 54.6642 549.031 54.5707Z" fill="url(#paint20_linear_104_1971)"/>
<path d="M541.505 67.5252C541.048 66.9713 540.021 67.0967 539.758 67.7532C540.112 67.4614 540.814 67.336 541.505 67.5252Z" fill="url(#paint21_linear_104_1971)"/>
<path style="mix-blend-mode:screen" d="M548.026 55.9612C548.372 55.7606 548.756 57.2469 548.797 57.4155C548.974 58.1154 549.073 58.8324 549.094 59.5537C549.181 60.8141 549.047 62.0798 548.699 63.2944C548.915 62.105 548.965 60.8914 548.847 59.6882C548.793 58.9879 548.683 58.2928 548.52 57.6093C548.45 57.304 548.355 57.0045 548.239 56.7135C548.198 56.6086 547.859 56.0592 548.026 55.9612Z" fill="url(#paint22_linear_104_1971)"/>
<path d="M506.004 24.2828C506.553 23.877 506.361 22.254 506.537 21.2145C506.782 19.9341 507.111 18.6708 507.52 17.4328C508.262 15.1665 509.293 13.0046 510.587 11C509.026 12.9039 507.723 15.0047 506.713 17.2482C506.152 18.4737 505.674 19.7347 505.279 21.023C504.987 22.0443 504.527 23.7038 504.703 24.1414C504.907 24.6475 505.426 24.709 506.004 24.2828Z" fill="url(#paint23_linear_104_1971)"/>
<path d="M508.418 47.2215C509.68 47.2215 510.741 47.2215 510.75 46.0362C510.75 44.8372 510.602 44.4086 509.458 44.5659C508.315 44.7232 498.045 43.9824 496.55 43.7704C495.054 43.5584 494.828 43.9185 495.487 45.1153C496.328 46.6403 495.258 47.9783 496.518 48.1083C497.778 48.2382 508.418 47.2215 508.418 47.2215Z" fill="url(#paint24_linear_104_1971)"/>
<path d="M510.728 50.4357C511.926 49.9798 512.935 49.5763 512.431 48.473C511.928 47.3697 510.806 47.413 509.607 47.8758C509.607 47.8758 500.339 51.2061 498.016 51.6962C495.693 52.1863 496.251 53.2395 497.481 53.7638C499.221 54.5092 499.054 56.253 500.282 55.4278C505.942 51.6233 510.728 50.4357 510.728 50.4357Z" fill="url(#paint25_linear_104_1971)"/>
<path d="M509.303 43.6769C510.359 44.1898 511.253 44.6183 511.77 43.7134C512.287 42.8016 511.585 42.1177 510.528 41.6071L500.789 36.2913C499.733 35.7784 500.668 37.2167 499.296 38.1149C498.864 38.3953 498.272 38.4477 498.054 38.6483C497.837 38.8489 497.988 39.1931 498.537 39.3754C502.193 40.5722 509.303 43.6769 509.303 43.6769Z" fill="url(#paint26_linear_104_1971)"/>
<path d="M511.549 41.7211C512.117 42.4847 513.607 40.9096 513.052 40.1436C512.009 39.2023 511.075 38.1471 510.269 36.9979C509.068 35.2427 507.328 32.5073 507.328 32.5073C507.04 32.2474 507.042 33.2139 505.942 33.3347C504.982 33.4419 503.656 32.8788 504.52 33.9981C505.904 35.7738 511.549 41.7211 511.549 41.7211Z" fill="url(#paint27_linear_104_1971)"/>
<path d="M504.357 32.5255C504.357 32.913 504.947 33.5376 505.674 33.5285C506.401 33.5285 507.023 33.1182 506.991 32.4959C506.81 28.9968 506.22 28.2856 506.129 27.098C506.003 25.4385 506.451 25.2356 506.358 24.5654C506.264 23.8952 506.035 24.1825 505.672 24.2827C504.757 24.5267 504.208 23.3709 504.194 24.2007C504.176 25.2561 504.398 26.3343 504.478 27.2666C504.764 30.5697 504.357 32.5255 504.357 32.5255Z" fill="url(#paint28_linear_104_1971)"/>
<path d="M497.519 37.2167C497.995 38.0032 498.574 38.4294 499.205 38.1833C499.836 37.9371 500.433 37.1757 500.197 36.4987C498.5 31.6319 498.123 32.7443 497.419 30.2688C497.147 29.3136 497.227 27.7613 496.913 27.4878C496.6 27.2142 496.388 27.6747 495.541 27.3875C494.627 27.0774 494.382 27.1321 494.901 27.9915C494.903 27.9915 497.042 36.428 497.519 37.2167Z" fill="url(#paint29_linear_104_1971)"/>
<path d="M495.69 47.4472C496.31 46.9001 496.543 45.8949 495.885 45.2612C495.226 44.6274 494.366 44.2399 493.308 45.1586C493.308 45.1586 485.681 53.007 484.634 53.5814C483.139 54.3997 482.867 54.671 484.223 55.0494C484.943 55.25 485.309 56.1664 485.931 55.9202C486.553 55.674 485.96 55.2888 488.117 53.1984C490.001 51.3817 490.605 51.9401 495.69 47.4472Z" fill="url(#paint30_linear_104_1971)"/>
<path d="M499.313 55.5304C499.672 54.7462 498.949 53.7455 497.959 53.4036C496.969 53.0617 495.963 53.7136 495.725 54.2926C495.725 54.2926 492.396 65.2343 491.534 66.716C491.033 67.5708 490.619 68.2113 492.08 67.9264C492.97 67.7554 493.537 68.6627 493.681 67.548C493.793 66.7069 494.138 65.4622 494.913 63.8666C495.689 62.2709 496.29 62.0772 499.313 55.5304Z" fill="url(#paint31_linear_104_1971)"/>
<path d="M491.522 68.3094C491.38 68.8906 491.783 69.4947 491.947 70.0783C493.617 76.005 497.538 81.2023 502.338 85C497.925 80.8832 494.428 75.4397 493.338 69.4583C493.253 69.0023 493.129 68.2569 492.802 67.833C492.475 67.409 491.664 67.7258 491.522 68.3094Z" fill="#231F20"/>
<path d="M496.678 27.2438C496.987 26.6762 496.678 24.8959 496.852 23.7152C497.037 22.4422 497.36 21.1932 497.817 19.9904C498.599 17.9161 499.843 15.8463 501.393 14.4512C499.592 15.6821 498.107 17.6927 497.049 19.7647C496.443 20.9742 495.97 22.2452 495.638 23.5556C495.32 24.7455 494.767 26.7469 495.059 27.2028C495.352 27.6587 496.376 27.8092 496.678 27.2438Z" fill="#231F20"/>
<path d="M483.372 55.2842C482.837 56.0752 483.029 57.6617 483.052 58.863C483.059 60.3598 483.217 61.852 483.523 63.3172C484.099 65.925 485.053 68.6034 486.599 70.81C485.463 68.4811 484.779 65.9589 484.584 63.3765C484.449 61.6441 484.342 60.2535 484.683 58.5485C484.911 57.4315 485.682 56.5448 485.369 55.6968C485.055 54.8488 483.903 54.5 483.372 55.2842Z" fill="#231F20"/>
<path style="mix-blend-mode:screen" d="M505.806 23.7972C505.869 23.7536 505.919 23.695 505.953 23.6269C505.987 23.5589 506.003 23.4834 506.001 23.4074C506.001 23.0928 506.035 22.7851 506.06 22.4728C506.135 21.796 506.244 21.1235 506.387 20.4577C506.643 19.198 506.966 17.9525 507.352 16.7261C506.834 17.8716 506.418 19.0599 506.108 20.2776C505.926 20.9513 505.791 21.6368 505.706 22.3292C505.66 22.7053 505.429 23.526 505.806 23.7972Z" fill="url(#paint32_linear_104_1971)"/>
<path style="mix-blend-mode:screen" d="M512.087 39.8017C509.675 37.2942 507.431 33.3666 507.205 33.2663C506.931 33.1432 506.681 34.324 504.662 33.6972C504.953 34.2716 506.551 33.8681 507.45 34.609C508.479 35.4706 510.114 38.0898 512.087 39.8017Z" fill="url(#paint33_linear_104_1971)"/>
<path d="M510.255 41.9239C507.004 40.4103 500.88 36.6811 500.651 36.6925C500.352 36.6925 500.765 38.393 498.678 38.7189C499.999 39.1521 500.278 37.6134 501.438 37.8071C502.597 38.0009 507.708 41.019 510.255 41.9239Z" fill="url(#paint34_linear_104_1971)"/>
<path d="M509.506 44.9238C505.916 44.9238 496.195 44.1282 495.976 44.2399C495.71 44.3767 496.748 46.1411 496.415 47.568C497.277 47.2352 496.069 45.2361 497.197 44.9238C498.324 44.6115 506.812 45.1837 509.506 44.9238Z" fill="url(#paint35_linear_104_1971)"/>
<path style="mix-blend-mode:screen" d="M508.708 48.7511C505.374 50.0755 497.359 52.3094 497.197 52.4963C497 52.7243 499.458 53.6361 499.678 55.0813C500.364 54.4545 498.258 53.2577 499.188 52.5488C500.119 51.8398 506.3 49.982 508.708 48.7511Z" fill="url(#paint36_linear_104_1971)"/>
<path style="mix-blend-mode:screen" d="M505.836 27.604C506.106 28.3608 506.849 32.3705 506.469 32.7329C506.09 33.0954 505.36 33.0429 505.061 32.8788C506.991 32.5073 505.564 26.8472 505.836 27.604Z" fill="url(#paint37_linear_104_1971)"/>
<path style="mix-blend-mode:screen" d="M497.542 31.7436C498.029 32.3864 499.987 36.2434 499.829 36.7449C499.76 37.0359 499.599 37.2968 499.369 37.4884C499.139 37.6799 498.852 37.7918 498.553 37.8071C500.245 36.0223 497.062 31.1031 497.542 31.7436Z" fill="url(#paint38_linear_104_1971)"/>
<path style="mix-blend-mode:screen" d="M488.307 50.7844C488.782 50.1348 493.907 45.0674 494.433 45.0651C495.119 45.0651 495.663 45.9154 495.61 46.3713C494.213 44.2285 490.138 49.5056 488.307 50.7844Z" fill="url(#paint39_linear_104_1971)"/>
<path style="mix-blend-mode:screen" d="M493.793 62.4533C493.88 61.6555 495.997 54.5023 496.452 54.247C497.049 53.9028 497.946 54.3701 498.124 54.7918C496.068 53.9644 494.74 60.4359 493.793 62.4533Z" fill="url(#paint40_linear_104_1971)"/>
<path d="M506.146 24.4947C505.688 25.0532 504.664 24.9324 504.396 24.2828C504.753 24.5654 505.455 24.6885 506.146 24.4947Z" fill="url(#paint41_linear_104_1971)"/>
<path d="M496.859 27.7476C496.401 28.3038 495.375 28.183 495.109 27.5333C495.462 27.8183 496.168 27.9482 496.859 27.7476Z" fill="url(#paint42_linear_104_1971)"/>
<path d="M483.967 54.5707C484.607 54.2356 485.503 54.7462 485.494 55.4483C485.277 55.0494 484.678 54.6642 483.967 54.5707Z" fill="url(#paint43_linear_104_1971)"/>
<path d="M491.494 67.5252C491.951 66.9713 492.978 67.0967 493.241 67.7532C492.887 67.4614 492.185 67.336 491.494 67.5252Z" fill="url(#paint44_linear_104_1971)"/>
<path style="mix-blend-mode:screen" d="M484.972 55.9612C484.627 55.7606 484.243 57.2469 484.202 57.4155C484.025 58.1154 483.926 58.8324 483.904 59.5537C483.818 60.8141 483.952 62.0798 484.3 63.2944C484.084 62.105 484.034 60.8914 484.151 59.6882C484.208 58.9877 484.32 58.2926 484.485 57.6093C484.556 57.304 484.65 57.0045 484.767 56.7135C484.801 56.6086 485.139 56.0592 484.972 55.9612Z" fill="url(#paint45_linear_104_1971)"/>
<path d="M514.825 36.6742C513.997 36.1545 513.238 35.3977 513.439 34.5018C513.537 33.7359 514.098 33.1204 514.825 32.6326C514.422 33.1387 514.12 33.704 514.212 34.3149C514.266 34.6545 514.446 34.9613 514.717 35.1743C514.994 35.3646 515.304 35.5001 515.632 35.5732L514.825 36.6742Z" fill="#231F20"/>
<path d="M517.168 35.5732C517.463 35.5013 517.746 35.386 518.007 35.2313C518.162 35.13 518.293 34.9975 518.393 34.8424C518.493 34.6873 518.56 34.5131 518.588 34.3309C518.727 33.7336 518.371 33.125 517.98 32.6326C518.718 33.1273 519.228 33.7222 519.363 34.4904C519.523 35.4022 518.84 36.134 517.98 36.6742L517.168 35.5732Z" fill="#231F20"/>
<path d="M513.02 37.3535C513.02 35.9448 514.531 34.8027 516.397 34.8027C518.263 34.8027 519.774 35.9425 519.774 37.3535C519.774 38.7645 518.263 39.9043 516.397 39.9043C514.531 39.9043 513.02 38.7623 513.02 37.3535Z" fill="url(#paint46_radial_104_1971)"/>
<path style="mix-blend-mode:screen" opacity="0.4" d="M513.756 37.5997C513.756 36.4052 515.039 35.4364 516.621 35.4364C517.063 35.4226 517.504 35.5015 517.914 35.6679C518.324 35.8344 518.694 36.0848 519.001 36.4029C518.544 35.6507 517.556 35.1264 516.395 35.1264C514.812 35.1264 513.529 36.0952 513.529 37.2897C513.536 37.7325 513.707 38.1571 514.01 38.4819C513.846 38.2161 513.759 37.9112 513.756 37.5997Z" fill="url(#paint47_radial_104_1971)"/>
<path d="M523.269 47.5908C523.269 51.817 520.191 53.3056 516.409 53.3056C512.626 53.3056 509.537 51.817 509.537 47.5908C509.537 43.3646 512.613 38.0009 516.397 38.0009C520.182 38.0009 523.269 43.3669 523.269 47.5908Z" fill="url(#paint48_radial_104_1971)"/>
<path style="mix-blend-mode:screen" opacity="0.4" d="M520.881 41.8191C521.74 43.3334 522.211 45.0355 522.253 46.7748C522.253 50.4995 519.541 51.8102 516.195 51.8102C515.762 51.8106 515.329 51.7862 514.899 51.7373C514.899 51.7373 514.899 51.7509 514.899 51.7601C514.842 51.977 514.765 52.1883 514.67 52.3915C515.336 52.5231 516.013 52.5873 516.691 52.583C520.034 52.583 522.749 51.27 522.749 47.5452C522.69 45.4974 522.041 43.5097 520.881 41.8191Z" fill="url(#paint49_radial_104_1971)"/>
<path style="mix-blend-mode:screen" opacity="0.8" d="M519.001 47.0825C518.333 50.2738 516.184 50.9919 513.821 50.5018C511.459 50.0117 509.781 48.489 510.448 45.3022C511.116 42.1154 513.879 38.4636 516.241 38.9606C518.603 39.4575 519.668 43.9048 519.001 47.0825Z" fill="url(#paint50_linear_104_1971)"/>
<path d="M530.529 65.2092C530.529 73.6959 524.202 80.5777 516.397 80.5777C508.593 80.5777 502.266 73.6959 502.266 65.2092C502.266 56.7226 508.593 49.8316 516.397 49.8316C524.202 49.8316 530.529 56.7203 530.529 65.2092Z" fill="url(#paint51_radial_104_1971)"/>
<path d="M536.851 27.4171C536.666 26.9475 536.824 26.3343 536.803 25.8419C536.772 25.1909 536.695 24.5427 536.574 23.9021C536.367 22.657 536.012 21.441 535.516 20.2799C536.122 21.3598 536.56 22.5249 536.817 23.7357C536.978 24.3823 537.079 25.0423 537.119 25.7075C537.135 26.2454 537.329 27.2279 536.851 27.4171Z" fill="url(#paint52_linear_104_1971)"/>
<path d="M540.568 68.9978C540.724 69.2098 540.625 69.4537 540.568 69.6816C540.488 69.9985 540.406 70.3153 540.319 70.6299C540.118 71.3616 539.91 72.1002 539.633 72.8091C539.2 74.05 538.658 75.25 538.012 76.3948C538.542 75.2014 539 73.9774 539.384 72.7294C539.601 72.0455 539.788 71.3502 539.976 70.6573C540.061 70.3404 540.138 70.0213 540.205 69.7022C540.28 69.4605 540.31 69.13 540.568 68.9978Z" fill="url(#paint53_linear_104_1971)"/>
<path style="mix-blend-mode:screen" opacity="0.4" d="M523.65 62.3689C523.65 68.5396 518.366 74.7741 513.278 74.7741C508.19 74.7741 503.166 70.6048 503.166 64.4319C503.166 58.259 508.611 51.1993 513.699 51.1993C518.786 51.1993 523.65 56.2142 523.65 62.3689Z" fill="url(#paint54_linear_104_1971)"/>
<path style="mix-blend-mode:screen" opacity="0.6" d="M525.969 55.6193C527.375 57.9702 528.111 60.6581 528.1 63.3947C528.1 71.2454 522.249 77.6075 515.032 77.6075C511.296 77.6075 507.93 75.9002 505.547 73.167C507.882 77.0422 511.906 79.6021 516.484 79.6021C523.701 79.6021 529.553 73.24 529.553 65.3893C529.577 61.8088 528.305 58.3398 525.969 55.6193Z" fill="url(#paint55_radial_104_1971)"/>
</g>
</g>
<defs>
<linearGradient id="paint0_linear_104_1971" x1="524.98" y1="17.8408" x2="526.539" y2="17.2037" gradientUnits="userSpaceOnUse">
<stop stop-color="#414042"/>
<stop offset="0.59" stop-color="#231F20"/>
</linearGradient>
<linearGradient id="paint1_linear_104_1971" x1="530.055" y1="44.3152" x2="530.055" y2="47.641" gradientUnits="userSpaceOnUse">
<stop stop-color="#414042"/>
<stop offset="0.62" stop-color="#231F20"/>
</linearGradient>
<linearGradient id="paint2_linear_104_1971" x1="527.604" y1="52.8702" x2="528.921" y2="49.84" gradientUnits="userSpaceOnUse">
<stop offset="0.38" stop-color="#231F20"/>
<stop offset="0.55" stop-color="#302D2E"/>
<stop offset="0.79" stop-color="#3D3B3D"/>
<stop offset="1" stop-color="#414042"/>
</linearGradient>
<linearGradient id="paint3_linear_104_1971" x1="527.073" y1="39.1771" x2="528.313" y2="41.6148" gradientUnits="userSpaceOnUse">
<stop stop-color="#414042"/>
<stop offset="0.77" stop-color="#231F20"/>
</linearGradient>
<linearGradient id="paint4_linear_104_1971" x1="523.198" y1="36.2502" x2="525.282" y2="38.1601" gradientUnits="userSpaceOnUse">
<stop stop-color="#414042"/>
<stop offset="0.8" stop-color="#231F20"/>
</linearGradient>
<linearGradient id="paint5_linear_104_1971" x1="526.007" y1="28.7119" x2="528.801" y2="28.7119" gradientUnits="userSpaceOnUse">
<stop stop-color="#414042"/>
<stop offset="0.8" stop-color="#231F20"/>
</linearGradient>
<linearGradient id="paint6_linear_104_1971" x1="534.694" y1="32.3317" x2="536.47" y2="32.8361" gradientUnits="userSpaceOnUse">
<stop stop-color="#414042"/>
<stop offset="0.8" stop-color="#231F20"/>
</linearGradient>
<linearGradient id="paint7_linear_104_1971" x1="544.013" y1="49.2207" x2="542.149" y2="51.335" gradientUnits="userSpaceOnUse">
<stop stop-color="#414042"/>
<stop offset="0.62" stop-color="#231F20"/>
</linearGradient>
<linearGradient id="paint8_linear_104_1971" x1="539.499" y1="60.0826" x2="536.738" y2="61.5487" gradientUnits="userSpaceOnUse">
<stop stop-color="#414042"/>
<stop offset="0.62" stop-color="#231F20"/>
</linearGradient>
<linearGradient id="paint9_linear_104_1971" x1="526.692" y1="16.993" x2="526.33" y2="23.5275" gradientUnits="userSpaceOnUse">
<stop/>
<stop offset="0.2" stop-color="#373738"/>
<stop offset="0.49" stop-color="#818282"/>
<stop offset="0.73" stop-color="#B8B9B9"/>
<stop offset="0.9" stop-color="#D9DADB"/>
<stop offset="1" stop-color="#E6E7E8"/>
</linearGradient>
<linearGradient id="paint10_linear_104_1971" x1="524.626" y1="33.4396" x2="524.626" y2="39.5806" gradientUnits="userSpaceOnUse">
<stop stop-color="#E6E7E8"/>
<stop offset="0.13" stop-color="#C4C5C6"/>
<stop offset="0.56" stop-color="#5B5C5C"/>
<stop offset="0.86" stop-color="#1A1A1A"/>
<stop offset="1"/>
</linearGradient>
<linearGradient id="paint11_linear_104_1971" x1="530.615" y1="36.1189" x2="526.928" y2="43.6472" gradientUnits="userSpaceOnUse">
<stop stop-color="#E6E7E8"/>
<stop offset="0.13" stop-color="#C4C5C6"/>
<stop offset="0.56" stop-color="#5B5C5C"/>
<stop offset="0.86" stop-color="#1A1A1A"/>
<stop offset="1"/>
</linearGradient>
<linearGradient id="paint12_linear_104_1971" x1="533.426" y1="40.7062" x2="528.087" y2="49.5025" gradientUnits="userSpaceOnUse">
<stop stop-color="#E6E7E8"/>
<stop offset="0.03" stop-color="#E0E1E2"/>
<stop offset="0.51" stop-color="#696969"/>
<stop offset="0.85" stop-color="#1D1E1E"/>
<stop offset="1"/>
</linearGradient>
<linearGradient id="paint13_linear_104_1971" x1="533.822" y1="48.1421" x2="526.353" y2="53.7929" gradientUnits="userSpaceOnUse">
<stop stop-color="#E6E7E8"/>
<stop offset="0.13" stop-color="#C4C5C6"/>
<stop offset="0.56" stop-color="#5B5C5C"/>
<stop offset="0.86" stop-color="#1A1A1A"/>
<stop offset="1"/>
</linearGradient>
<linearGradient id="paint14_linear_104_1971" x1="527.181" y1="27.6929" x2="527.181" y2="32.8264" gradientUnits="userSpaceOnUse">
<stop/>
<stop offset="0.14" stop-color="#1A1A1A"/>
<stop offset="0.44" stop-color="#5B5C5C"/>
<stop offset="0.87" stop-color="#C4C5C6"/>
<stop offset="1" stop-color="#E6E7E8"/>
</linearGradient>
<linearGradient id="paint15_linear_104_1971" x1="535.473" y1="31.8696" x2="533.729" y2="37.4307" gradientUnits="userSpaceOnUse">
<stop/>
<stop offset="0.14" stop-color="#1A1A1A"/>
<stop offset="0.44" stop-color="#5B5C5C"/>
<stop offset="0.87" stop-color="#C4C5C6"/>
<stop offset="1" stop-color="#E6E7E8"/>
</linearGradient>
<linearGradient id="paint16_linear_104_1971" x1="544.759" y1="50.5262" x2="537.965" y2="45.9275" gradientUnits="userSpaceOnUse">
<stop/>
<stop offset="0.14" stop-color="#1A1A1A"/>
<stop offset="0.44" stop-color="#5B5C5C"/>
<stop offset="0.87" stop-color="#C4C5C6"/>
<stop offset="1" stop-color="#E6E7E8"/>
</linearGradient>
<linearGradient id="paint17_linear_104_1971" x1="539.399" y1="62.0674" x2="535.731" y2="54.4593" gradientUnits="userSpaceOnUse">
<stop/>
<stop offset="0.14" stop-color="#1A1A1A"/>
<stop offset="0.44" stop-color="#5B5C5C"/>
<stop offset="0.87" stop-color="#C4C5C6"/>
<stop offset="1" stop-color="#E6E7E8"/>
</linearGradient>
<linearGradient id="paint18_linear_104_1971" x1="527.709" y1="24.2645" x2="527.82" y2="25.0351" gradientUnits="userSpaceOnUse">
<stop/>
<stop offset="0.13" stop-color="#1E1E1E"/>
<stop offset="0.56" stop-color="#7D7F7F"/>
<stop offset="0.86" stop-color="#BABBBC"/>
<stop offset="1" stop-color="#D1D3D4"/>
</linearGradient>
<linearGradient id="paint19_linear_104_1971" x1="536.998" y1="27.5151" x2="537.107" y2="28.2857" gradientUnits="userSpaceOnUse">
<stop/>
<stop offset="0.13" stop-color="#1E1E1E"/>
<stop offset="0.56" stop-color="#7D7F7F"/>
<stop offset="0.86" stop-color="#BABBBC"/>
<stop offset="1" stop-color="#D1D3D4"/>
</linearGradient>
<linearGradient id="paint20_linear_104_1971" x1="548.334" y1="55.1139" x2="547.933" y2="54.4459" gradientUnits="userSpaceOnUse">
<stop stop-color="white"/>
<stop offset="0.45" stop-color="#E9EAEA"/>
<stop offset="1" stop-color="#D1D3D4"/>
</linearGradient>
<linearGradient id="paint21_linear_104_1971" x1="540.647" y1="67.764" x2="540.535" y2="66.9939" gradientUnits="userSpaceOnUse">
<stop stop-color="white"/>
<stop offset="0.45" stop-color="#E9EAEA"/>
<stop offset="1" stop-color="#D1D3D4"/>
</linearGradient>
<linearGradient id="paint22_linear_104_1971" x1="548.093" y1="56.1276" x2="549.063" y2="62.2536" gradientUnits="userSpaceOnUse">
<stop stop-color="white"/>
<stop offset="0.05" stop-color="#EBEBEB"/>
<stop offset="0.26" stop-color="#A5A5A5"/>
<stop offset="0.45" stop-color="#6A6A6A"/>
<stop offset="0.63" stop-color="#3C3C3C"/>
<stop offset="0.78" stop-color="#1B1B1B"/>
<stop offset="0.91" stop-color="#070707"/>
<stop offset="1"/>
</linearGradient>
<linearGradient id="paint23_linear_104_1971" x1="508.019" y1="17.8408" x2="506.461" y2="17.2037" gradientUnits="userSpaceOnUse">
<stop stop-color="#414042"/>
<stop offset="0.59" stop-color="#231F20"/>
</linearGradient>
<linearGradient id="paint24_linear_104_1971" x1="502.943" y1="44.3152" x2="502.943" y2="47.641" gradientUnits="userSpaceOnUse">
<stop stop-color="#414042"/>
<stop offset="0.62" stop-color="#231F20"/>
</linearGradient>
<linearGradient id="paint25_linear_104_1971" x1="505.393" y1="52.8702" x2="504.078" y2="49.84" gradientUnits="userSpaceOnUse">
<stop offset="0.38" stop-color="#231F20"/>
<stop offset="0.55" stop-color="#302D2E"/>
<stop offset="0.79" stop-color="#3D3B3D"/>
<stop offset="1" stop-color="#414042"/>
</linearGradient>
<linearGradient id="paint26_linear_104_1971" x1="505.925" y1="39.1771" x2="504.683" y2="41.6148" gradientUnits="userSpaceOnUse">
<stop stop-color="#414042"/>
<stop offset="0.77" stop-color="#231F20"/>
</linearGradient>
<linearGradient id="paint27_linear_104_1971" x1="509.802" y1="36.2502" x2="507.718" y2="38.1601" gradientUnits="userSpaceOnUse">
<stop stop-color="#414042"/>
<stop offset="0.8" stop-color="#231F20"/>
</linearGradient>
<linearGradient id="paint28_linear_104_1971" x1="506.991" y1="28.7119" x2="504.197" y2="28.7119" gradientUnits="userSpaceOnUse">
<stop stop-color="#414042"/>
<stop offset="0.8" stop-color="#231F20"/>
</linearGradient>
<linearGradient id="paint29_linear_104_1971" x1="498.304" y1="32.3317" x2="496.528" y2="32.8361" gradientUnits="userSpaceOnUse">
<stop stop-color="#414042"/>
<stop offset="0.8" stop-color="#231F20"/>
</linearGradient>
<linearGradient id="paint30_linear_104_1971" x1="488.986" y1="49.2207" x2="490.85" y2="51.335" gradientUnits="userSpaceOnUse">
<stop stop-color="#414042"/>
<stop offset="0.62" stop-color="#231F20"/>
</linearGradient>
<linearGradient id="paint31_linear_104_1971" x1="493.498" y1="60.0826" x2="496.261" y2="61.5487" gradientUnits="userSpaceOnUse">
<stop stop-color="#414042"/>
<stop offset="0.62" stop-color="#231F20"/>
</linearGradient>
<linearGradient id="paint32_linear_104_1971" x1="506.162" y1="17.437" x2="506.554" y2="23.9817" gradientUnits="userSpaceOnUse">
<stop/>
<stop offset="0.2" stop-color="#373738"/>
<stop offset="0.49" stop-color="#818282"/>
<stop offset="0.73" stop-color="#B8B9B9"/>
<stop offset="0.9" stop-color="#D9DADB"/>
<stop offset="1" stop-color="#E6E7E8"/>
</linearGradient>
<linearGradient id="paint33_linear_104_1971" x1="508.373" y1="33.4396" x2="508.373" y2="39.5806" gradientUnits="userSpaceOnUse">
<stop stop-color="#E6E7E8"/>
<stop offset="0.13" stop-color="#C4C5C6"/>
<stop offset="0.56" stop-color="#5B5C5C"/>
<stop offset="0.86" stop-color="#1A1A1A"/>
<stop offset="1"/>
</linearGradient>
<linearGradient id="paint34_linear_104_1971" x1="502.156" y1="36.0516" x2="505.835" y2="43.6003" gradientUnits="userSpaceOnUse">
<stop stop-color="#E6E7E8"/>
<stop offset="0.13" stop-color="#C4C5C6"/>
<stop offset="0.56" stop-color="#5B5C5C"/>
<stop offset="0.86" stop-color="#1A1A1A"/>
<stop offset="1"/>
</linearGradient>
<linearGradient id="paint35_linear_104_1971" x1="499.204" y1="40.6614" x2="504.524" y2="49.5034" gradientUnits="userSpaceOnUse">
<stop stop-color="#E6E7E8"/>
<stop offset="0.03" stop-color="#E0E1E2"/>
<stop offset="0.51" stop-color="#696969"/>
<stop offset="0.85" stop-color="#1D1E1E"/>
<stop offset="1"/>
</linearGradient>
<linearGradient id="paint36_linear_104_1971" x1="499.394" y1="48.4106" x2="506.908" y2="54.0418" gradientUnits="userSpaceOnUse">
<stop stop-color="#E6E7E8"/>
<stop offset="0.13" stop-color="#C4C5C6"/>
<stop offset="0.56" stop-color="#5B5C5C"/>
<stop offset="0.86" stop-color="#1A1A1A"/>
<stop offset="1"/>
</linearGradient>
<linearGradient id="paint37_linear_104_1971" x1="505.817" y1="27.6929" x2="505.817" y2="32.8264" gradientUnits="userSpaceOnUse">
<stop/>
<stop offset="0.14" stop-color="#1A1A1A"/>
<stop offset="0.44" stop-color="#5B5C5C"/>
<stop offset="0.87" stop-color="#C4C5C6"/>
<stop offset="1" stop-color="#E6E7E8"/>
</linearGradient>
<linearGradient id="paint38_linear_104_1971" x1="497.919" y1="31.8411" x2="499.663" y2="37.3815" gradientUnits="userSpaceOnUse">
<stop/>
<stop offset="0.14" stop-color="#1A1A1A"/>
<stop offset="0.44" stop-color="#5B5C5C"/>
<stop offset="0.87" stop-color="#C4C5C6"/>
<stop offset="1" stop-color="#E6E7E8"/>
</linearGradient>
<linearGradient id="paint39_linear_104_1971" x1="488.192" y1="50.3923" x2="494.986" y2="45.7936" gradientUnits="userSpaceOnUse">
<stop/>
<stop offset="0.14" stop-color="#1A1A1A"/>
<stop offset="0.44" stop-color="#5B5C5C"/>
<stop offset="0.87" stop-color="#C4C5C6"/>
<stop offset="1" stop-color="#E6E7E8"/>
</linearGradient>
<linearGradient id="paint40_linear_104_1971" x1="493.681" y1="62.2292" x2="497.388" y2="54.6231" gradientUnits="userSpaceOnUse">
<stop/>
<stop offset="0.14" stop-color="#1A1A1A"/>
<stop offset="0.44" stop-color="#5B5C5C"/>
<stop offset="0.87" stop-color="#C4C5C6"/>
<stop offset="1" stop-color="#E6E7E8"/>
</linearGradient>
<linearGradient id="paint41_linear_104_1971" x1="505.291" y1="24.2645" x2="505.179" y2="25.0351" gradientUnits="userSpaceOnUse">
<stop/>
<stop offset="0.13" stop-color="#1E1E1E"/>
<stop offset="0.56" stop-color="#7D7F7F"/>
<stop offset="0.86" stop-color="#BABBBC"/>
<stop offset="1" stop-color="#D1D3D4"/>
</linearGradient>
<linearGradient id="paint42_linear_104_1971" x1="496.001" y1="27.5151" x2="495.892" y2="28.2857" gradientUnits="userSpaceOnUse">
<stop/>
<stop offset="0.13" stop-color="#1E1E1E"/>
<stop offset="0.56" stop-color="#7D7F7F"/>
<stop offset="0.86" stop-color="#BABBBC"/>
<stop offset="1" stop-color="#D1D3D4"/>
</linearGradient>
<linearGradient id="paint43_linear_104_1971" x1="484.652" y1="55.1553" x2="485.052" y2="54.488" gradientUnits="userSpaceOnUse">
<stop stop-color="white"/>
<stop offset="0.45" stop-color="#E9EAEA"/>
<stop offset="1" stop-color="#D1D3D4"/>
</linearGradient>
<linearGradient id="paint44_linear_104_1971" x1="492.146" y1="67.6095" x2="492.255" y2="66.839" gradientUnits="userSpaceOnUse">
<stop stop-color="white"/>
<stop offset="0.45" stop-color="#E9EAEA"/>
<stop offset="1" stop-color="#D1D3D4"/>
</linearGradient>
<linearGradient id="paint45_linear_104_1971" x1="484.906" y1="56.1276" x2="483.936" y2="62.2536" gradientUnits="userSpaceOnUse">
<stop stop-color="white"/>
<stop offset="0.05" stop-color="#EBEBEB"/>
<stop offset="0.26" stop-color="#A5A5A5"/>
<stop offset="0.45" stop-color="#6A6A6A"/>
<stop offset="0.63" stop-color="#3C3C3C"/>
<stop offset="0.78" stop-color="#1B1B1B"/>
<stop offset="0.91" stop-color="#070707"/>
<stop offset="1"/>
</linearGradient>
<radialGradient id="paint46_radial_104_1971" cx="0" cy="0" r="1" gradientUnits="userSpaceOnUse" gradientTransform="translate(515.91 37.6772) scale(2.99556 2.98617)">
<stop stop-color="#58595B"/>
<stop offset="0.15" stop-color="#4D4D4E"/>
<stop offset="0.6" stop-color="#2E2C2D"/>
<stop offset="0.85" stop-color="#231F20"/>
</radialGradient>
<radialGradient id="paint47_radial_104_1971" cx="0" cy="0" r="1" gradientUnits="userSpaceOnUse" gradientTransform="translate(516.504 38.1012) scale(3.09161 3.08191)">
<stop/>
<stop offset="0.37" stop-color="#020202"/>
<stop offset="0.51" stop-color="#090909"/>
<stop offset="0.6" stop-color="#141414"/>
<stop offset="0.68" stop-color="#252525"/>
<stop offset="0.75" stop-color="#3B3B3B"/>
<stop offset="0.8" stop-color="#575757"/>
<stop offset="0.86" stop-color="#777777"/>
<stop offset="0.91" stop-color="#9D9D9D"/>
<stop offset="0.95" stop-color="#C8C8C8"/>
<stop offset="0.99" stop-color="#F6F6F6"/>
<stop offset="1" stop-color="white"/>
</radialGradient>
<radialGradient id="paint48_radial_104_1971" cx="0" cy="0" r="1" gradientUnits="userSpaceOnUse" gradientTransform="translate(516.07 45.2201) scale(8.61167 8.58466)">
<stop stop-color="#5C5C5C"/>
<stop offset="0.18" stop-color="#6D6E71"/>
<stop offset="0.8" stop-color="#231F20"/>
</radialGradient>
<radialGradient id="paint49_radial_104_1971" cx="0" cy="0" r="1" gradientUnits="userSpaceOnUse" gradientTransform="translate(517.142 47.3424) scale(5.61382 5.59622)">
<stop offset="0.74" stop-color="#231F20"/>
<stop offset="0.77" stop-color="#2A2728"/>
<stop offset="0.82" stop-color="#3E3B3C"/>
<stop offset="0.88" stop-color="#5F5D5E"/>
<stop offset="0.94" stop-color="#8C8C8D"/>
<stop offset="1" stop-color="#BCBEC0"/>
</radialGradient>
<linearGradient id="paint50_linear_104_1971" x1="511.909" y1="39.2793" x2="517.546" y2="47.0427" gradientUnits="userSpaceOnUse">
<stop stop-color="#FEFEFE"/>
<stop offset="0.11" stop-color="#C3C3C3"/>
<stop offset="0.21" stop-color="#909090"/>
<stop offset="0.32" stop-color="#646464"/>
<stop offset="0.43" stop-color="#404040"/>
<stop offset="0.54" stop-color="#242424"/>
<stop offset="0.65" stop-color="#101010"/>
<stop offset="0.76" stop-color="#040404"/>
<stop offset="0.87"/>
</linearGradient>
<radialGradient id="paint51_radial_104_1971" cx="0" cy="0" r="1" gradientUnits="userSpaceOnUse" gradientTransform="translate(515.746 64.4524) scale(17.827 17.7711)">
<stop stop-color="#D1D3D4"/>
<stop offset="0.01" stop-color="#CDCFD0"/>
<stop offset="0.32" stop-color="#858485"/>
<stop offset="0.57" stop-color="#504E4F"/>
<stop offset="0.76" stop-color="#2F2C2D"/>
<stop offset="0.86" stop-color="#231F20"/>
</radialGradient>
<linearGradient id="paint52_linear_104_1971" x1="535.511" y1="23.8474" x2="537.171" y2="23.8474" gradientUnits="userSpaceOnUse">
<stop stop-color="white"/>
<stop offset="0.43" stop-color="#F8F8F8"/>
<stop offset="1" stop-color="#E6E7E8"/>
</linearGradient>
<linearGradient id="paint53_linear_104_1971" x1="538.019" y1="72.6997" x2="540.651" y2="72.6997" gradientUnits="userSpaceOnUse">
<stop stop-color="white"/>
<stop offset="0.43" stop-color="#F8F8F8"/>
<stop offset="1" stop-color="#E6E7E8"/>
</linearGradient>
<linearGradient id="paint54_linear_104_1971" x1="509.592" y1="53.839" x2="518.823" y2="76.9118" gradientUnits="userSpaceOnUse">
<stop stop-color="white"/>
<stop offset="0.19" stop-color="#B0B0B0"/>
<stop offset="0.39" stop-color="#666666"/>
<stop offset="0.55" stop-color="#2F2F2F"/>
<stop offset="0.68" stop-color="#0D0D0D"/>
<stop offset="0.74"/>
</linearGradient>
<radialGradient id="paint55_radial_104_1971" cx="0" cy="0" r="1" gradientUnits="userSpaceOnUse" gradientTransform="translate(515.183 64.4843) scale(15.5586 15.5098)">
<stop offset="0.88" stop-color="#231F20"/>
<stop offset="0.92" stop-color="#727173"/>
<stop offset="0.94" stop-color="#A7A9AA"/>
<stop offset="0.95" stop-color="#BCBEC0"/>
</radialGradient>
<clipPath id="clip0_104_1971">
<rect width="609" height="114" fill="white"/>
</clipPath>
<clipPath id="clip1_104_1971">
<rect width="67" height="74" fill="white" transform="translate(483 11)"/>
</clipPath>
</defs>
</svg>
